<?xml version="1.0" standalone="no"?>
<!DOCTYPE svg PUBLIC "-//W3C//DTD SVG 1.1//EN" "http://www.w3.org/Graphics/SVG/1.1/DTD/svg11.dtd" >
<svg>
<metadata>
Created by FontForge 20110222 at Thu May  1 03:26:16 2014
 By Orthosie Webhosting
Copyright jurenites 2014
</metadata>
<defs>
<font id="4pixel" horiz-adv-x="640" >
  <font-face 
    font-family="4pixel"
    font-weight="400"
    font-stretch="normal"
    units-per-em="1024"
    panose-1="0 0 4 0 0 0 0 0 0 0"
    ascent="819"
    descent="-205"
    x-height="384"
    cap-height="512"
    bbox="0 -128 1408 896"
    underline-thickness="51"
    underline-position="127"
    unicode-range="U+0020-FB06"
  />
<missing-glyph horiz-adv-x="896" 
d="M256 72v82h-82v-82h82zM337 167v82h-163v-82h163zM256 262v82h-82v-82h82zM337 357v81h-81q-34 0 -58 -23q-24 -24 -24 -58h163zM0 0v512h512v-512h-512z" />
    <glyph glyph-name=".notdef" horiz-adv-x="896" 
d="M256 72v82h-82v-82h82zM337 167v82h-163v-82h163zM256 262v82h-82v-82h82zM337 357v81h-81q-34 0 -58 -23q-24 -24 -24 -58h163zM0 0v512h512v-512h-512z" />
    <glyph glyph-name="glyph1" horiz-adv-x="0" 
 />
    <glyph glyph-name="glyph2" horiz-adv-x="256" 
 />
    <glyph glyph-name="space" unicode=" " horiz-adv-x="256" 
 />
    <glyph glyph-name="exclam" unicode="!" horiz-adv-x="256" 
d="M0 0v128h128v-128h-128zM0 256v256h128v-256h-128z" />
    <glyph glyph-name="quotedbl" unicode="&#x22;" 
d="M0 256v128h128v-128h-128zM256 256v128h128v-128h-128zM128 384v128h128v-128h-128zM384 384v128h128v-128h-128z" />
    <glyph glyph-name="numbersign" unicode="#" horiz-adv-x="768" 
d="M384 256v128h-128v-128h128zM128 0v128h-128v128h128v128h-128v128h128v128h128v-128h128v128h128v-128h128v-128h-128v-128h128v-128h-128v-128h-128v128h-128v-128h-128z" />
    <glyph glyph-name="dollar" unicode="$" horiz-adv-x="512" 
d="M128 -128v128h-128v128h256v128h128v-256h-128v-128h-128zM0 256v256h128v128h128v-128h128v-128h-256v-128h-128z" />
    <glyph glyph-name="percent" unicode="%" 
d="M0 0v128h128v-128h-128zM384 0v128h128v-128h-128zM128 128v128h128v-128h-128zM256 256v128h128v-128h-128zM0 384v128h128v-128h-128zM384 384v128h128v-128h-128z" />
    <glyph glyph-name="ampersand" unicode="&#x26;" horiz-adv-x="768" 
d="M0 128v128h128v-128h-128zM128 0v128h256v128h256v-128h-128v-128h-384zM128 256v256h128v-128h128v-128h-256zM384 384v128h128v-128h-128zM256 512v128h128v-128h-128z" />
    <glyph glyph-name="quotesingle" unicode="'" horiz-adv-x="384" 
d="M0 256v128h128v-128h-128zM128 384v128h128v-128h-128z" />
    <glyph glyph-name="parenleft" unicode="(" horiz-adv-x="384" 
d="M128 -128v128h128v-128h-128zM0 0v384h128v-384h-128zM128 384v128h128v-128h-128z" />
    <glyph glyph-name="parenright" unicode=")" horiz-adv-x="384" 
d="M0 -128v128h128v-128h-128zM128 0v384h128v-384h-128zM0 384v128h128v-128h-128z" />
    <glyph glyph-name="asterisk" unicode="*" horiz-adv-x="512" 
d="M0 256v128h128v-128h-128zM256 256v128h128v-128h-128zM128 384v128h128v-128h-128zM0 512v128h128v-128h-128zM256 512v128h128v-128h-128z" />
    <glyph glyph-name="plus" unicode="+" horiz-adv-x="512" 
d="M128 0v128h-128v128h128v128h128v-128h128v-128h-128v-128h-128z" />
    <glyph glyph-name="comma" unicode="," horiz-adv-x="256" 
d="M0 -128v256h128v-256h-128z" />
    <glyph glyph-name="hyphen" unicode="-" horiz-adv-x="512" 
d="M0 128v128h384v-128h-384z" />
    <glyph glyph-name="period" unicode="." horiz-adv-x="256" 
d="M0 0v128h128v-128h-128z" />
    <glyph glyph-name="slash" unicode="/" 
d="M0 0v128h128v-128h-128zM128 128v128h128v-128h-128zM256 256v128h128v-128h-128zM384 384v128h128v-128h-128z" />
    <glyph glyph-name="zero" unicode="0" 
d="M384 128v256h-256v-256h256zM0 0v512h512v-512h-512z" />
    <glyph glyph-name="one" unicode="1" 
d="M384 0v512h128v-512h-128z" />
    <glyph glyph-name="two" unicode="2" 
d="M0 0v128h128v128h256v-128h128v-128h-512zM384 256v128h-384v128h512v-256h-128z" />
    <glyph glyph-name="three" unicode="3" 
d="M0 0v128h256v128h128v128h-384v128h512v-512h-512z" />
    <glyph glyph-name="four" unicode="4" 
d="M384 0v128h-384v384h128v-256h256v256h128v-512h-128z" />
    <glyph glyph-name="five" unicode="5" 
d="M0 0v128h384v128h128v-256h-512zM0 256v256h512v-128h-256v-128h-256z" />
    <glyph glyph-name="six" unicode="6" 
d="M384 128v128h-256v-128h256zM0 0v512h128v-128h384v-384h-512z" />
    <glyph glyph-name="seven" unicode="7" 
d="M384 0v384h-384v128h512v-512h-128z" />
    <glyph glyph-name="eight" unicode="8" 
d="M256 128v128h128v128h-128v-128h-128v-128h128zM0 0v384h128v128h384v-384h-128v-128h-384z" />
    <glyph glyph-name="nine" unicode="9" 
d="M384 256v128h-256v-128h256zM384 0v128h-384v384h512v-512h-128z" />
    <glyph glyph-name="colon" unicode=":" horiz-adv-x="256" 
d="M0 0v128h128v-128h-128zM0 256v128h128v-128h-128z" />
    <glyph glyph-name="semicolon" unicode=";" horiz-adv-x="256" 
d="M0 -128v256h128v-256h-128zM0 256v128h128v-128h-128z" />
    <glyph glyph-name="less" unicode="&#x3c;" horiz-adv-x="512" 
d="M128 0v128h256v-128h-256zM0 128v128h128v-128h-128zM128 256v128h256v-128h-256z" />
    <glyph glyph-name="equal" unicode="=" horiz-adv-x="512" 
d="M0 0v128h384v-128h-384zM0 256v128h384v-128h-384z" />
    <glyph glyph-name="greater" unicode="&#x3e;" horiz-adv-x="512" 
d="M0 0v128h256v-128h-256zM256 128v128h128v-128h-128zM0 256v128h256v-128h-256z" />
    <glyph glyph-name="question" unicode="?" horiz-adv-x="512" 
d="M128 0v256h128v128h-128v-128h-128v256h384v-384h-128v-128h-128z" />
    <glyph glyph-name="at" unicode="@" horiz-adv-x="896" 
d="M256 -128v128h384v-128h-384zM128 0v128h128v-128h-128zM0 128v256h128v-256h-128zM256 128v256h256v-128h128v-128h-384zM128 384v128h128v-128h-128zM640 256v256h128v-256h-128zM256 512v128h384v-128h-384z" />
    <glyph glyph-name="A" unicode="A" 
d="M0 0v384h128v-128h256v128h-256v128h384v-512h-128v128h-256v-128h-128z" />
    <glyph glyph-name="B" unicode="B" 
d="M384 128v128h-128v128h-128v-256h256zM0 0v512h384v-128h128v-384h-512z" />
    <glyph glyph-name="C" unicode="C" 
d="M0 0v512h512v-128h-384v-256h384v-128h-512z" />
    <glyph glyph-name="D" unicode="D" 
d="M384 128v256h128v-256h-128zM0 0v512h384v-128h-256v-256h256v-128h-384z" />
    <glyph glyph-name="E" unicode="E" 
d="M0 0v512h512v-128h-384v-128h128v-128h256v-128h-512z" />
    <glyph glyph-name="F" unicode="F" 
d="M0 0v512h512v-128h-384v-128h128v-128h-128v-128h-128z" />
    <glyph glyph-name="G" unicode="G" 
d="M0 0v512h512v-128h-384v-256h256v128h128v-256h-512z" />
    <glyph glyph-name="H" unicode="H" 
d="M0 0v512h128v-256h256v256h128v-512h-128v128h-256v-128h-128z" />
    <glyph glyph-name="I" unicode="I" horiz-adv-x="256" 
d="M0 0v512h128v-512h-128z" />
    <glyph glyph-name="J" unicode="J" horiz-adv-x="512" 
d="M0 0v128h128v-128h-128zM128 128v256h-128v128h384v-128h-128v-256h-128z" />
    <glyph glyph-name="K" unicode="K" 
d="M384 0v128h128v-128h-128zM0 0v512h128v-256h256v-128h-256v-128h-128zM384 256v256h128v-256h-128z" />
    <glyph glyph-name="L" unicode="L" 
d="M0 0v512h128v-384h384v-128h-512z" />
    <glyph glyph-name="M" unicode="M" horiz-adv-x="768" 
d="M256 128v128h128v-128h-128zM0 0v512h128v-128h128v-128h-128v-256h-128zM512 0v256h-128v128h128v128h128v-512h-128z" />
    <glyph glyph-name="N" unicode="N" 
d="M0 0v512h128v-128h128v-128h-128v-256h-128zM384 0v128h-128v128h128v256h128v-512h-128z" />
    <glyph glyph-name="O" unicode="O" 
d="M384 128v256h-256v-256h256zM0 0v512h512v-512h-512z" />
    <glyph glyph-name="P" unicode="P" 
d="M384 256v128h-256v-128h256zM0 0v512h512v-384h-384v-128h-128z" />
    <glyph glyph-name="Q" unicode="Q" 
d="M256 128v128h128v128h-256v-256h128zM0 0v512h512v-512h-512z" />
    <glyph glyph-name="R" unicode="R" 
d="M384 0v128h128v-128h-128zM0 0v512h512v-256h-128v128h-256v-128h256v-128h-256v-128h-128z" />
    <glyph glyph-name="S" unicode="S" 
d="M0 0v128h384v128h128v-256h-512zM0 256v256h512v-128h-384v-128h-128z" />
    <glyph glyph-name="T" unicode="T" 
d="M128 0v384h-128v128h512v-128h-256v-384h-128z" />
    <glyph glyph-name="U" unicode="U" 
d="M0 128v384h128v-384h-128zM128 0v128h256v384h128v-512h-384z" />
    <glyph glyph-name="V" unicode="V" 
d="M256 0v128h128v-128h-128zM128 128v128h128v-128h-128zM0 256v256h128v-256h-128zM384 128v384h128v-384h-128z" />
    <glyph glyph-name="W" unicode="W" horiz-adv-x="768" 
d="M128 0v128h128v-128h-128zM384 0v128h128v-128h-128zM256 128v128h128v-128h-128zM0 128v384h128v-384h-128zM512 128v384h128v-384h-128z" />
    <glyph glyph-name="X" unicode="X" 
d="M0 0v128h128v-128h-128zM384 0v128h128v-128h-128zM128 128v256h128v-128h128v-128h-256zM0 384v128h128v-128h-128zM384 384v128h128v-128h-128z" />
    <glyph glyph-name="Y" unicode="Y" 
d="M256 0v256h128v-256h-128zM128 256v128h128v-128h-128zM0 384v128h128v-128h-128zM384 256v256h128v-256h-128z" />
    <glyph glyph-name="Z" unicode="Z" 
d="M0 0v128h128v128h128v-128h256v-128h-512zM256 256v128h-256v128h512v-128h-128v-128h-128z" />
    <glyph glyph-name="bracketleft" unicode="[" horiz-adv-x="384" 
d="M0 -128v640h256v-128h-128v-384h128v-128h-256z" />
    <glyph glyph-name="backslash" unicode="\" 
d="M384 0v128h128v-128h-128zM256 128v128h128v-128h-128zM128 256v128h128v-128h-128zM0 384v128h128v-128h-128z" />
    <glyph glyph-name="bracketright" unicode="]" horiz-adv-x="384" 
d="M0 -128v128h128v384h-128v128h256v-640h-256z" />
    <glyph glyph-name="asciicircum" unicode="^" horiz-adv-x="512" 
d="M0 256v128h128v-128h-128zM256 256v128h128v-128h-128zM128 384v128h128v-128h-128z" />
    <glyph glyph-name="underscore" unicode="_" horiz-adv-x="512" 
d="M0 0v128h384v-128h-384z" />
    <glyph glyph-name="grave" unicode="`" horiz-adv-x="384" 
d="M128 256v128h128v-128h-128zM0 384v128h128v-128h-128z" />
    <glyph glyph-name="a" unicode="a" 
d="M0 0v256h128v-128h128v128h-128v128h256v-256h128v-128h-512z" />
    <glyph glyph-name="b" unicode="b" horiz-adv-x="512" 
d="M256 128v128h-128v-128h128zM0 0v512h128v-128h256v-384h-384z" />
    <glyph glyph-name="c" unicode="c" horiz-adv-x="512" 
d="M0 0v384h384v-128h-256v-128h256v-128h-384z" />
    <glyph glyph-name="d" unicode="d" horiz-adv-x="512" 
d="M256 128v128h-128v-128h128zM0 0v384h256v128h128v-512h-384z" />
    <glyph glyph-name="e" unicode="e" horiz-adv-x="512" 
d="M0 0v384h384v-256h-256v-128h-128z" />
    <glyph glyph-name="f" unicode="f" horiz-adv-x="384" 
d="M0 0v384h128v-128h128v-128h-128v-128h-128zM128 384v128h128v-128h-128z" />
    <glyph glyph-name="g" unicode="g" horiz-adv-x="512" 
d="M256 128v128h-128v-128h128zM128 -128v128h-128v384h384v-512h-256z" />
    <glyph glyph-name="h" unicode="h" horiz-adv-x="512" 
d="M0 0v512h128v-256h256v-256h-128v128h-128v-128h-128z" />
    <glyph glyph-name="i" unicode="i" horiz-adv-x="256" 
d="M0 0v256h128v-256h-128zM0 384v128h128v-128h-128z" />
    <glyph glyph-name="j" unicode="j" horiz-adv-x="384" 
d="M0 -128v128h128v-128h-128zM128 0v256h128v-256h-128zM128 384v128h128v-128h-128z" />
    <glyph glyph-name="k" unicode="k" horiz-adv-x="512" 
d="M256 0v128h128v-128h-128zM256 256v128h128v-128h-128zM0 0v512h128v-256h128v-128h-128v-128h-128z" />
    <glyph glyph-name="l" unicode="l" horiz-adv-x="256" 
d="M0 0v512h128v-512h-128z" />
    <glyph glyph-name="m" unicode="m" horiz-adv-x="768" 
d="M512 0v256h128v-256h-128zM0 0v384h512v-128h-128v-256h-128v256h-128v-256h-128z" />
    <glyph glyph-name="n" unicode="n" horiz-adv-x="512" 
d="M256 0v256h128v-256h-128zM0 0v384h256v-128h-128v-256h-128z" />
    <glyph glyph-name="o" unicode="o" horiz-adv-x="512" 
d="M256 128v128h-128v-128h128zM0 0v384h384v-384h-384z" />
    <glyph glyph-name="p" unicode="p" horiz-adv-x="512" 
d="M256 128v128h-128v-128h128zM0 -128v512h384v-384h-256v-128h-128z" />
    <glyph glyph-name="q" unicode="q" horiz-adv-x="512" 
d="M256 128v128h-128v-128h128zM256 -128v128h-256v384h384v-512h-128z" />
    <glyph glyph-name="r" unicode="r" horiz-adv-x="512" 
d="M0 0v256h128v-256h-128zM128 256v128h256v-128h-256z" />
    <glyph glyph-name="s" unicode="s" horiz-adv-x="512" 
d="M0 0v128h128v256h256v-128h-128v-256h-256z" />
    <glyph glyph-name="t" unicode="t" horiz-adv-x="384" 
d="M128 0v128h128v-128h-128zM0 128v384h128v-128h128v-128h-128v-128h-128z" />
    <glyph glyph-name="u" unicode="u" horiz-adv-x="512" 
d="M0 128v256h128v-256h-128zM128 0v128h128v256h128v-384h-256z" />
    <glyph glyph-name="v" unicode="v" horiz-adv-x="512" 
d="M128 0v128h128v-128h-128zM0 128v256h128v-256h-128zM256 128v256h128v-256h-128z" />
    <glyph glyph-name="w" unicode="w" horiz-adv-x="768" 
d="M128 0v128h128v-128h-128zM384 0v128h128v-128h-128zM256 128v128h128v-128h-128zM0 128v256h128v-256h-128zM512 128v256h128v-256h-128z" />
    <glyph glyph-name="x" unicode="x" horiz-adv-x="512" 
d="M0 0v128h128v-128h-128zM256 0v128h128v-128h-128zM128 128v128h128v-128h-128zM0 256v128h128v-128h-128zM256 256v128h128v-128h-128z" />
    <glyph glyph-name="y" unicode="y" horiz-adv-x="512" 
d="M128 0v256h128v-256h-128zM0 256v128h128v-128h-128zM256 256v128h128v-128h-128z" />
    <glyph glyph-name="z" unicode="z" horiz-adv-x="512" 
d="M128 0v256h-128v128h256v-256h128v-128h-256z" />
    <glyph glyph-name="braceleft" unicode="{" horiz-adv-x="512" 
d="M128 -128v256h128v-128h128v-128h-256zM0 128v128h128v-128h-128zM128 256v256h256v-128h-128v-128h-128z" />
    <glyph glyph-name="bar" unicode="|" horiz-adv-x="256" 
d="M0 0v512h128v-512h-128z" />
    <glyph glyph-name="braceright" unicode="}" horiz-adv-x="512" 
d="M0 -128v128h128v128h128v-256h-256zM256 128v128h128v-128h-128zM128 256v128h-128v128h256v-256h-128z" />
    <glyph glyph-name="asciitilde" unicode="~" 
d="M0 128v128h128v-128h-128zM256 128v128h128v-128h-128zM128 256v128h128v-128h-128zM384 256v128h128v-128h-128z" />
    <glyph glyph-name="exclamdown" unicode="&#xa1;" horiz-adv-x="256" 
d="M0 0v256h128v-256h-128zM0 384v128h128v-128h-128z" />
    <glyph glyph-name="currency" unicode="&#xa4;" horiz-adv-x="768" 
d="M0 0v128h128v-128h-128zM512 0v128h128v-128h-128zM384 256v128h-128v-128h128zM128 128v384h384v-384h-384zM0 512v128h128v-128h-128zM512 512v128h128v-128h-128z" />
    <glyph glyph-name="brokenbar" unicode="&#xa6;" horiz-adv-x="256" 
d="M0 0v256h128v-256h-128zM0 384v256h128v-256h-128z" />
    <glyph glyph-name="section" unicode="&#xa7;" horiz-adv-x="512" 
d="M256 0v128h128v-128h-128zM128 128v128h128v-128h-128zM0 256v128h128v-128h-128zM256 256v128h128v-128h-128zM128 384v128h128v-128h-128zM0 512v128h128v-128h-128z" />
    <glyph glyph-name="dieresis" unicode="&#xa8;" horiz-adv-x="512" 
d="M0 384v128h128v-128h-128zM256 384v128h128v-128h-128z" />
    <glyph glyph-name="copyright" unicode="&#xa9;" horiz-adv-x="1024" 
d="M256 -128v128h384v-128h-384zM128 0v128h128v-128h-128zM640 0v128h128v-128h-128zM0 128v384h128v-384h-128zM256 128v384h384v-128h-256v-128h256v-128h-384zM768 128v384h128v-384h-128zM128 512v128h128v-128h-128zM640 512v128h128v-128h-128zM256 640v128h384v-128
h-384z" />
    <glyph glyph-name="ordfeminine" unicode="&#xaa;" 
d="M0 -128v128h384v-128h-384zM0 128v256h128v-128h128v128h-128v128h256v-128h128v-256h-512z" />
    <glyph glyph-name="guillemotleft" unicode="&#xab;" horiz-adv-x="768" 
d="M128 0v128h128v-128h-128zM512 0v128h128v-128h-128zM0 128v128h128v-128h-128zM384 128v128h128v-128h-128zM128 256v128h128v-128h-128zM512 256v128h128v-128h-128z" />
    <glyph glyph-name="logicalnot" unicode="&#xac;" 
d="M384 256v128h-384v128h512v-256h-128z" />
    <glyph glyph-name="registered" unicode="&#xae;" horiz-adv-x="1024" 
d="M256 -128v128h384v-128h-384zM128 0v128h128v-128h-128zM640 0v128h128v-128h-128zM0 128v384h128v-384h-128zM256 128v384h384v-384h-128v128h-128v-128h-128zM768 128v384h128v-384h-128zM128 512v128h128v-128h-128zM640 512v128h128v-128h-128zM256 640v128h384v-128
h-384z" />
    <glyph glyph-name="macron" unicode="&#xaf;" horiz-adv-x="512" 
d="M0 256v128h384v-128h-384z" />
    <glyph glyph-name="degree" unicode="&#xb0;" horiz-adv-x="512" 
d="M128 128v128h128v-128h-128zM0 256v128h128v-128h-128zM256 256v128h128v-128h-128zM128 384v128h128v-128h-128z" />
    <glyph glyph-name="plusminus" unicode="&#xb1;" horiz-adv-x="512" 
d="M0 0v128h128v128h-128v128h128v128h128v-128h128v-128h-128v-128h128v-128h-384z" />
    <glyph glyph-name="uni00B2" unicode="&#xb2;" horiz-adv-x="512" 
d="M0 128v128h128v128h-128v128h256v-256h128v-128h-384z" />
    <glyph glyph-name="uni00B3" unicode="&#xb3;" horiz-adv-x="512" 
d="M256 128v128h-128v128h-128v128h256v-128h128v-256h-128z" />
    <glyph glyph-name="acute" unicode="&#xb4;" horiz-adv-x="256" 
d="M0 256v256h128v-256h-128z" />
    <glyph glyph-name="uni00B5" unicode="&#xb5;" horiz-adv-x="512" 
d="M0 -128v512h128v-256h128v256h128v-384h-256v-128h-128z" />
    <glyph glyph-name="paragraph" unicode="&#xb6;" 
d="M128 0v256h-128v256h256v-512h-128zM384 0v512h128v-512h-128z" />
    <glyph glyph-name="periodcentered" unicode="&#xb7;" horiz-adv-x="384" 
d="M128 128v128h128v-128h-128z" />
    <glyph glyph-name="uni00B9" unicode="&#xb9;" horiz-adv-x="256" 
d="M0 128v384h128v-384h-128z" />
    <glyph glyph-name="ordmasculine" unicode="&#xba;" horiz-adv-x="512" 
d="M0 0v128h128v128h128v-128h128v-128h-384zM0 256v128h128v-128h-128zM256 256v128h128v-128h-128zM128 384v128h128v-128h-128z" />
    <glyph glyph-name="guillemotright" unicode="&#xbb;" horiz-adv-x="768" 
d="M0 0v128h128v-128h-128zM384 0v128h128v-128h-128zM128 128v128h128v-128h-128zM512 128v128h128v-128h-128zM0 256v128h128v-128h-128zM384 256v128h128v-128h-128z" />
    <glyph glyph-name="onequarter" unicode="&#xbc;" horiz-adv-x="1152" 
d="M128 0v128h128v-128h-128zM256 128v128h128v-128h-128zM384 256v128h128v-128h-128zM896 0v128h-256v256h128v-128h128v128h128v-384h-128zM0 128v384h128v-384h-128zM512 384v128h128v-128h-128z" />
    <glyph glyph-name="onehalf" unicode="&#xbd;" horiz-adv-x="1152" 
d="M128 0v128h128v-128h-128zM256 128v128h128v-128h-128zM384 256v128h128v-128h-128zM640 0v128h128v128h-128v128h256v-256h128v-128h-384zM0 128v384h128v-384h-128zM512 384v128h128v-128h-128z" />
    <glyph glyph-name="threequarters" unicode="&#xbe;" 
d="M128 0v128h128v-128h-128zM256 128v128h128v-128h-128zM384 256v128h128v-128h-128zM896 0v128h-256v256h128v-128h128v128h128v-384h-128zM0 128v384h128v-384h-128zM512 384v128h128v-128h-128z" />
    <glyph glyph-name="questiondown" unicode="&#xbf;" horiz-adv-x="512" 
d="M0 0v384h128v128h128v-256h-128v-128h128v128h128v-256h-384z" />
    <glyph glyph-name="multiply" unicode="&#xd7;" horiz-adv-x="512" 
d="M0 128v128h128v-128h-128zM256 128v128h128v-128h-128zM128 256v128h128v-128h-128zM0 384v128h128v-128h-128zM256 384v128h128v-128h-128z" />
    <glyph glyph-name="divide" unicode="&#xf7;" horiz-adv-x="512" 
d="M128 -128v128h128v-128h-128zM0 128v128h384v-128h-384zM128 384v128h128v-128h-128z" />
    <glyph glyph-name="uni0374" unicode="&#x374;" horiz-adv-x="256" 
d="M0 256v256h128v-256h-128z" />
    <glyph glyph-name="uni0375" unicode="&#x375;" horiz-adv-x="256" 
d="M0 -128v256h128v-256h-128z" />
    <glyph glyph-name="uni037A" unicode="&#x37a;" horiz-adv-x="384" 
d="M0 -128v256h128v-128h128v-128h-256z" />
    <glyph glyph-name="uni037B" unicode="&#x37b;" horiz-adv-x="512" 
d="M0 0v128h256v128h-256v128h384v-384h-384z" />
    <glyph glyph-name="uni037C" unicode="&#x37c;" horiz-adv-x="512" 
d="M0 0v384h384v-128h-128v-128h128v-128h-384z" />
    <glyph glyph-name="uni037D" unicode="&#x37d;" horiz-adv-x="512" 
d="M0 0v128h128v128h-128v128h384v-384h-384z" />
    <glyph glyph-name="uni037E" unicode="&#x37e;" horiz-adv-x="256" 
d="M0 -128v256h128v-256h-128zM0 256v128h128v-128h-128z" />
    <glyph glyph-name="tonos" unicode="&#x384;" horiz-adv-x="256" 
d="M0 384v128h128v-128h-128z" />
    <glyph glyph-name="dieresistonos" unicode="&#x385;" horiz-adv-x="768" 
d="M0 384v128h128v-128h-128zM512 384v128h128v-128h-128zM256 384v256h128v-256h-128z" />
    <glyph glyph-name="Alphatonos" unicode="&#x386;" horiz-adv-x="768" 
d="M0 384v128h128v-128h-128zM128 0v384h128v-128h256v128h-256v128h384v-512h-128v128h-256v-128h-128z" />
    <glyph glyph-name="anoteleia" unicode="&#x387;" horiz-adv-x="256" 
d="M0 384v128h128v-128h-128z" />
    <glyph glyph-name="Epsilontonos" unicode="&#x388;" horiz-adv-x="896" 
d="M0 384v128h128v-128h-128zM256 0v512h512v-128h-384v-128h128v-128h256v-128h-512z" />
    <glyph glyph-name="Etatonos" unicode="&#x389;" horiz-adv-x="896" 
d="M0 384v128h128v-128h-128zM256 0v512h128v-256h256v256h128v-512h-128v128h-256v-128h-128z" />
    <glyph glyph-name="Iotatonos" unicode="&#x38a;" horiz-adv-x="512" 
d="M0 384v128h128v-128h-128zM256 0v512h128v-512h-128z" />
    <glyph glyph-name="Omicrontonos" unicode="&#x38c;" horiz-adv-x="896" 
d="M640 128v256h-256v-256h256zM0 384v128h128v-128h-128zM256 0v512h512v-512h-512z" />
    <glyph glyph-name="Upsilontonos" unicode="&#x38e;" horiz-adv-x="896" 
d="M512 0v256h128v-256h-128zM384 256v128h128v-128h-128zM0 384v128h128v-128h-128zM256 384v128h128v-128h-128zM640 256v256h128v-256h-128z" />
    <glyph glyph-name="Omegatonos" unicode="&#x38f;" horiz-adv-x="1024" 
d="M256 0v128h128v-128h-128zM768 0v128h128v-128h-128zM384 128v128h128v-128h-128zM640 128v128h128v-128h-128zM256 256v128h128v-128h-128zM768 256v128h128v-128h-128zM0 384v128h128v-128h-128zM384 384v128h384v-128h-384z" />
    <glyph glyph-name="iotadieresistonos" unicode="&#x390;" horiz-adv-x="768" 
d="M256 0v256h128v-128h128v-128h-256zM0 384v128h128v-128h-128zM512 384v128h128v-128h-128zM256 384v256h128v-256h-128z" />
    <glyph glyph-name="Alpha" unicode="&#x391;" 
d="M0 0v384h128v-128h256v128h-256v128h384v-512h-128v128h-256v-128h-128z" />
    <glyph glyph-name="Beta" unicode="&#x392;" 
d="M384 128v128h-128v128h-128v-256h256zM0 0v512h384v-128h128v-384h-512z" />
    <glyph glyph-name="Gamma" unicode="&#x393;" 
d="M0 0v512h512v-128h-384v-384h-128z" />
    <glyph glyph-name="Delta" unicode="&#x394;" horiz-adv-x="768" 
d="M0 0v256h128v-128h384v128h128v-256h-640zM128 256v128h128v-128h-128zM384 256v128h128v-128h-128zM256 384v128h128v-128h-128z" />
    <glyph glyph-name="Epsilon" unicode="&#x395;" 
d="M0 0v512h512v-128h-384v-128h128v-128h256v-128h-512z" />
    <glyph glyph-name="Zeta" unicode="&#x396;" 
d="M0 0v128h128v128h128v-128h256v-128h-512zM256 256v128h-256v128h512v-128h-128v-128h-128z" />
    <glyph glyph-name="Eta" unicode="&#x397;" 
d="M0 0v512h128v-256h256v256h128v-512h-128v128h-256v-128h-128z" />
    <glyph glyph-name="Theta" unicode="&#x398;" 
d="M128 0v128h256v-128h-256zM0 128v384h128v-128h256v128h128v-384h-128v128h-256v-128h-128zM128 512v128h256v-128h-256z" />
    <glyph glyph-name="Iota" unicode="&#x399;" horiz-adv-x="256" 
d="M0 0v512h128v-512h-128z" />
    <glyph glyph-name="Kappa" unicode="&#x39a;" 
d="M384 0v128h128v-128h-128zM0 0v512h128v-256h256v-128h-256v-128h-128zM384 256v256h128v-256h-128z" />
    <glyph glyph-name="Lambda" unicode="&#x39b;" horiz-adv-x="768" 
d="M0 0v256h128v-256h-128zM512 0v256h128v-256h-128zM128 256v128h128v-128h-128zM384 256v128h128v-128h-128zM256 384v128h128v-128h-128z" />
    <glyph glyph-name="Mu" unicode="&#x39c;" horiz-adv-x="768" 
d="M256 0v256h128v-256h-128zM0 0v512h128v-128h128v-128h-128v-256h-128zM512 0v256h-128v128h128v128h128v-512h-128z" />
    <glyph glyph-name="Nu" unicode="&#x39d;" 
d="M0 0v512h128v-128h128v-128h-128v-256h-128zM384 0v128h-128v128h128v256h128v-512h-128z" />
    <glyph glyph-name="Xi" unicode="&#x39e;" 
d="M0 0v128h512v-128h-512zM128 256v128h256v-128h-256zM0 512v128h512v-128h-512z" />
    <glyph glyph-name="Omicron" unicode="&#x39f;" 
d="M384 128v256h-256v-256h256zM0 0v512h512v-512h-512z" />
    <glyph glyph-name="Pi" unicode="&#x3a0;" 
d="M0 0v512h512v-512h-128v384h-256v-384h-128z" />
    <glyph glyph-name="Rho" unicode="&#x3a1;" 
d="M384 256v128h-256v-128h256zM0 0v512h512v-384h-384v-128h-128z" />
    <glyph glyph-name="Sigma" unicode="&#x3a3;" 
d="M0 0v256h128v-128h384v-128h-512zM128 256v128h128v-128h-128zM0 384v256h512v-128h-384v-128h-128z" />
    <glyph glyph-name="Tau" unicode="&#x3a4;" 
d="M128 0v384h-128v128h512v-128h-256v-384h-128z" />
    <glyph glyph-name="Upsilon" unicode="&#x3a5;" 
d="M256 0v256h128v-256h-128zM128 256v128h128v-128h-128zM0 384v128h128v-128h-128zM384 256v256h128v-256h-128z" />
    <glyph glyph-name="Phi" unicode="&#x3a6;" horiz-adv-x="768" 
d="M256 256v128h-128v-128h128zM512 256v128h-128v-128h128zM256 0v128h-256v384h256v128h128v-128h256v-384h-256v-128h-128z" />
    <glyph glyph-name="Chi" unicode="&#x3a7;" 
d="M0 0v128h128v-128h-128zM384 0v128h128v-128h-128zM128 128v256h128v-128h128v-128h-256zM0 384v128h128v-128h-128zM384 384v128h128v-128h-128z" />
    <glyph glyph-name="Psi" unicode="&#x3a8;" horiz-adv-x="768" 
d="M0 256v256h128v-256h-128zM256 0v128h-128v128h128v256h128v-256h128v-128h-128v-128h-128zM512 256v256h128v-256h-128z" />
    <glyph glyph-name="Omega" unicode="&#x3a9;" horiz-adv-x="768" 
d="M0 0v128h128v-128h-128zM512 0v128h128v-128h-128zM128 128v128h128v-128h-128zM384 128v128h128v-128h-128zM0 256v128h128v-128h-128zM512 256v128h128v-128h-128zM128 384v128h384v-128h-384z" />
    <glyph glyph-name="Iotadieresis" unicode="&#x3aa;" horiz-adv-x="512" 
d="M128 0v384h128v-384h-128zM0 384v128h128v-128h-128zM256 384v128h128v-128h-128z" />
    <glyph glyph-name="Upsilondieresis" unicode="&#x3ab;" 
d="M256 0v256h128v-256h-128zM128 256v128h128v-128h-128zM0 384v128h128v-128h-128zM384 256v256h128v-256h-128zM128 640v128h128v-128h-128zM384 640v128h128v-128h-128z" />
    <glyph glyph-name="alphatonos" unicode="&#x3ac;" 
d="M0 128v128h128v-128h-128zM128 0v128h128v128h-128v128h256v-256h128v-128h-384zM128 512v128h128v-128h-128z" />
    <glyph glyph-name="epsilontonos" unicode="&#x3ad;" horiz-adv-x="512" 
d="M128 0v128h-128v256h128v-128h128v-128h128v-128h-256zM128 384v128h256v-128h-256zM128 640v128h128v-128h-128z" />
    <glyph glyph-name="etatonos" unicode="&#x3ae;" horiz-adv-x="512" 
d="M256 -128v384h-128v-256h-128v384h384v-512h-128zM128 512v128h128v-128h-128z" />
    <glyph glyph-name="iotatonos" unicode="&#x3af;" horiz-adv-x="384" 
d="M128 -128v128h128v-128h-128zM0 0v256h128v-256h-128zM0 384v128h128v-128h-128z" />
    <glyph glyph-name="upsilondieresistonos" unicode="&#x3b0;" horiz-adv-x="768" 
d="M128 128v256h128v-256h-128zM256 0v128h128v256h128v-384h-256zM0 512v128h128v-128h-128zM512 512v128h128v-128h-128zM256 512v256h128v-256h-128z" />
    <glyph glyph-name="alpha" unicode="&#x3b1;" 
d="M0 0v256h128v-128h128v128h-128v128h256v-256h128v-128h-512z" />
    <glyph glyph-name="beta" unicode="&#x3b2;" horiz-adv-x="512" 
d="M256 128v128h128v-128h-128zM0 -128v640h128v-128h128v-128h-128v-128h128v-128h-128v-128h-128zM256 384v128h128v-128h-128zM128 512v128h128v-128h-128z" />
    <glyph glyph-name="gamma" unicode="&#x3b3;" 
d="M256 0v128h-128v128h256v-256h-128zM0 256v128h128v-128h-128zM384 256v128h128v-128h-128z" />
    <glyph glyph-name="delta" unicode="&#x3b4;" horiz-adv-x="512" 
d="M0 128v128h128v-128h-128zM128 0v128h128v128h128v-256h-256zM128 256v128h-128v128h384v-128h-128v-128h-128z" />
    <glyph glyph-name="epsilon" unicode="&#x3b5;" horiz-adv-x="512" 
d="M128 0v128h-128v256h128v-128h128v-128h128v-128h-256zM128 384v128h128v-128h-128z" />
    <glyph glyph-name="zeta" unicode="&#x3b6;" horiz-adv-x="512" 
d="M256 -128v128h-256v256h128v-128h256v-256h-128zM128 256v128h-128v128h384v-128h-128v-128h-128z" />
    <glyph glyph-name="eta" unicode="&#x3b7;" horiz-adv-x="512" 
d="M256 -128v384h128v-384h-128zM0 0v384h256v-128h-128v-256h-128z" />
    <glyph glyph-name="theta" unicode="&#x3b8;" horiz-adv-x="512" 
d="M128 0v128h128v-128h-128zM0 128v384h128v-128h128v128h128v-384h-128v128h-128v-128h-128zM128 512v128h128v-128h-128z" />
    <glyph glyph-name="iota" unicode="&#x3b9;" horiz-adv-x="384" 
d="M0 0v512h128v-384h128v-128h-256z" />
    <glyph glyph-name="kappa" unicode="&#x3ba;" horiz-adv-x="512" 
d="M256 0v128h128v-128h-128zM256 256v128h128v-128h-128zM0 0v512h128v-256h128v-128h-128v-128h-128z" />
    <glyph glyph-name="lambda" unicode="&#x3bb;" horiz-adv-x="512" 
d="M0 0v128h128v-128h-128zM256 0v128h128v-128h-128zM128 128v128h128v-128h-128zM0 256v128h128v-128h-128z" />
    <glyph glyph-name="mu" unicode="&#x3bc;" 
d="M0 -128v512h128v-256h128v256h128v-256h128v-128h-384v-128h-128z" />
    <glyph glyph-name="nu" unicode="&#x3bd;" horiz-adv-x="512" 
d="M128 0v128h128v-128h-128zM0 128v256h128v-256h-128zM256 128v256h128v-256h-128z" />
    <glyph glyph-name="xi" unicode="&#x3be;" 
d="M384 -128v128h-384v128h128v128h128v-128h256v-256h-128zM0 256v256h512v-128h-384v-128h-128z" />
    <glyph glyph-name="omicron" unicode="&#x3bf;" horiz-adv-x="512" 
d="M256 128v128h-128v-128h128zM0 0v384h384v-384h-384z" />
    <glyph glyph-name="pi" unicode="&#x3c0;" horiz-adv-x="768" 
d="M128 0v384h-128v128h640v-128h-128v-256h128v-128h-256v384h-128v-384h-128z" />
    <glyph glyph-name="rho" unicode="&#x3c1;" horiz-adv-x="512" 
d="M256 128v128h-128v-128h128zM0 -128v512h384v-384h-256v-128h-128z" />
    <glyph glyph-name="sigma1" unicode="&#x3c2;" horiz-adv-x="512" 
d="M256 -128v128h-256v384h384v-128h-256v-128h256v-256h-128z" />
    <glyph glyph-name="sigma" unicode="&#x3c3;" 
d="M256 128v128h-128v-128h128zM0 0v384h512v-128h-128v-256h-384z" />
    <glyph glyph-name="tau" unicode="&#x3c4;" horiz-adv-x="512" 
d="M128 0v256h-128v128h384v-128h-128v-128h128v-128h-256z" />
    <glyph glyph-name="upsilon" unicode="&#x3c5;" horiz-adv-x="512" 
d="M0 128v256h128v-256h-128zM128 0v128h128v256h128v-384h-256z" />
    <glyph glyph-name="phi" unicode="&#x3c6;" horiz-adv-x="768" 
d="M0 128v128h128v-128h-128zM512 128v128h128v-128h-128zM256 -128v128h-128v128h128v128h-128v128h384v-128h-128v-128h128v-128h-128v-128h-128z" />
    <glyph glyph-name="chi" unicode="&#x3c7;" horiz-adv-x="512" 
d="M0 0v128h128v-128h-128zM256 0v128h128v-128h-128zM128 128v128h128v-128h-128zM0 256v128h128v-128h-128zM256 256v128h128v-128h-128z" />
    <glyph glyph-name="psi" unicode="&#x3c8;" horiz-adv-x="768" 
d="M0 128v256h128v-256h-128zM512 128v256h128v-256h-128zM256 -128v128h-128v128h128v384h128v-384h128v-128h-128v-128h-128z" />
    <glyph glyph-name="omega" unicode="&#x3c9;" horiz-adv-x="768" 
d="M128 0v128h128v128h128v-128h128v-128h-384zM0 128v256h128v-256h-128zM512 128v256h128v-256h-128z" />
    <glyph glyph-name="iotadieresis" unicode="&#x3ca;" horiz-adv-x="512" 
d="M256 0v128h128v-128h-128zM128 128v256h128v-256h-128zM0 512v128h128v-128h-128zM256 512v128h128v-128h-128z" />
    <glyph glyph-name="upsilondieresis" unicode="&#x3cb;" horiz-adv-x="512" 
d="M0 128v256h128v-256h-128zM128 0v128h128v256h128v-384h-256zM0 512v128h128v-128h-128zM256 512v128h128v-128h-128z" />
    <glyph glyph-name="omicrontonos" unicode="&#x3cc;" horiz-adv-x="512" 
d="M256 128v128h-128v-128h128zM0 0v384h384v-384h-384zM128 512v128h128v-128h-128z" />
    <glyph glyph-name="upsilontonos" unicode="&#x3cd;" horiz-adv-x="512" 
d="M0 128v256h128v-256h-128zM128 0v128h128v256h128v-384h-256zM128 512v128h128v-128h-128z" />
    <glyph glyph-name="omegatonos" unicode="&#x3ce;" horiz-adv-x="768" 
d="M128 0v128h128v-128h-128zM384 0v128h128v-128h-128zM256 128v128h128v-128h-128zM0 128v256h128v-256h-128zM512 128v256h128v-256h-128zM256 512v128h128v-128h-128z" />
    <glyph glyph-name="uni03D0" unicode="&#x3d0;" horiz-adv-x="512" 
d="M128 0v128h128v-128h-128zM256 128v128h128v-128h-128zM0 128v384h128v-128h128v-128h-128v-128h-128zM256 384v128h128v-128h-128zM128 512v128h128v-128h-128z" />
    <glyph glyph-name="theta1" unicode="&#x3d1;" 
d="M0 0v128h256v-128h-256zM0 384v128h128v-128h-128zM256 128v128h-128v128h128v128h-128v128h256v-256h128v-128h-128v-128h-128z" />
    <glyph glyph-name="Upsilon1" unicode="&#x3d2;" horiz-adv-x="768" 
d="M256 0v256h128v-256h-128zM128 256v128h128v-128h-128zM384 256v128h128v-128h-128zM0 384v128h128v-128h-128zM512 384v128h128v-128h-128z" />
    <glyph glyph-name="uni03D3" unicode="&#x3d3;" horiz-adv-x="1024" 
d="M512 0v256h128v-256h-128zM384 256v128h128v-128h-128zM640 256v128h128v-128h-128zM0 384v128h128v-128h-128zM256 384v128h128v-128h-128zM768 384v128h128v-128h-128z" />
    <glyph glyph-name="uni03D4" unicode="&#x3d4;" horiz-adv-x="768" 
d="M256 0v256h128v-256h-128zM128 256v128h128v-128h-128zM384 256v128h128v-128h-128zM0 384v128h128v-128h-128zM512 384v128h128v-128h-128zM128 640v128h128v-128h-128zM384 640v128h128v-128h-128z" />
    <glyph glyph-name="phi1" unicode="&#x3d5;" horiz-adv-x="768" 
d="M0 0v128h128v-128h-128zM384 256v128h-128v-128h128zM128 128v384h384v-384h-384zM512 512v128h128v-128h-128z" />
    <glyph glyph-name="omega1" unicode="&#x3d6;" horiz-adv-x="1024" 
d="M256 0v128h128v-128h-128zM512 0v128h128v-128h-128zM384 128v128h128v-128h-128zM128 128v256h-128v128h896v-128h-128v-256h-128v256h-384v-256h-128z" />
    <glyph glyph-name="uni03D7" unicode="&#x3d7;" horiz-adv-x="768" 
d="M0 0v512h128v-256h128v-128h-128v-128h-128zM512 -128v128h-128v256h-128v128h128v128h128v-384h128v-256h-128z" />
    <glyph glyph-name="uni03D8" unicode="&#x3d8;" 
d="M384 128v256h-256v-256h256zM256 -128v128h-256v512h512v-512h-128v-128h-128z" />
    <glyph glyph-name="uni03D9" unicode="&#x3d9;" horiz-adv-x="512" 
d="M256 128v128h-128v-128h128zM128 -128v128h-128v384h384v-384h-128v-128h-128z" />
    <glyph glyph-name="uni03DA" unicode="&#x3da;" 
d="M384 -128v128h-384v512h512v-128h-384v-256h384v-256h-128z" />
    <glyph glyph-name="uni03DB" unicode="&#x3db;" horiz-adv-x="512" 
d="M256 -128v128h-256v384h384v-128h-256v-128h256v-256h-128z" />
    <glyph glyph-name="uni03DC" unicode="&#x3dc;" 
d="M0 0v512h512v-128h-384v-128h128v-128h-128v-128h-128z" />
    <glyph glyph-name="uni03DD" unicode="&#x3dd;" horiz-adv-x="384" 
d="M0 0v384h128v-128h128v-128h-128v-128h-128zM128 384v128h128v-128h-128z" />
    <glyph glyph-name="uni03DE" unicode="&#x3de;" 
d="M256 0v128h128v-128h-128zM384 128v128h-384v256h128v-128h384v-256h-128zM128 512v128h128v-128h-128z" />
    <glyph glyph-name="uni03DF" unicode="&#x3df;" horiz-adv-x="512" 
d="M128 0v128h128v-128h-128zM256 128v128h-256v256h128v-128h256v-256h-128zM128 512v128h128v-128h-128z" />
    <glyph glyph-name="uni03E0" unicode="&#x3e0;" 
d="M128 0v128h128v-128h-128zM0 128v128h128v-128h-128zM384 0v128h-128v128h-128v128h-128v128h256v-128h128v-128h128v-256h-128z" />
    <glyph glyph-name="uni03E1" unicode="&#x3e1;" 
d="M128 0v128h128v-128h-128zM384 0v128h128v-128h-128zM0 128v128h128v-128h-128zM256 128v128h-128v128h256v-256h-128zM0 384v128h128v-128h-128z" />
    <glyph glyph-name="uni03E2" unicode="&#x3e2;" horiz-adv-x="768" 
d="M384 -128v128h-384v512h128v-384h128v384h128v-384h128v384h128v-640h-256z" />
    <glyph glyph-name="uni03E3" unicode="&#x3e3;" horiz-adv-x="768" 
d="M384 -128v128h-384v384h128v-256h128v256h128v-256h128v256h128v-512h-256z" />
    <glyph glyph-name="uni03E4" unicode="&#x3e4;" 
d="M0 256v128h128v-128h-128zM128 384v128h128v-128h-128zM384 0v128h-256v128h256v256h128v-512h-128z" />
    <glyph glyph-name="uni03E5" unicode="&#x3e5;" 
d="M0 128v128h128v-128h-128zM128 256v128h128v-128h-128zM384 -128v128h-256v128h256v256h128v-512h-128z" />
    <glyph glyph-name="uni03E6" unicode="&#x3e6;" horiz-adv-x="512" 
d="M128 -128v128h128v-128h-128zM0 0v512h128v-256h256v-256h-128v128h-128v-128h-128z" />
    <glyph glyph-name="uni03E7" unicode="&#x3e7;" 
d="M0 0v128h384v256h-128v-128h-256v256h256v128h128v-128h128v-512h-512z" />
    <glyph glyph-name="uni03E8" unicode="&#x3e8;" 
d="M128 0v128h384v-128h-384zM0 128v128h128v-128h-128zM128 256v128h256v-128h-256zM0 384v128h128v-128h-128zM384 384v128h128v-128h-128zM128 512v128h256v-128h-256z" />
    <glyph glyph-name="uni03E9" unicode="&#x3e9;" horiz-adv-x="512" 
d="M128 0v128h256v-128h-256zM0 128v128h128v-128h-128zM128 256v128h128v-128h-128zM0 384v128h128v-128h-128zM256 384v128h128v-128h-128zM128 512v128h128v-128h-128z" />
    <glyph glyph-name="uni03EA" unicode="&#x3ea;" 
d="M0 0v256h128v-128h256v128h128v-256h-512zM128 256v128h256v-128h-256zM0 384v128h128v-128h-128zM384 384v128h128v-128h-128z" />
    <glyph glyph-name="uni03EB" unicode="&#x3eb;" horiz-adv-x="512" 
d="M0 0v256h128v-128h128v128h128v-256h-384zM128 256v128h128v-128h-128zM0 384v128h128v-128h-128zM256 384v128h128v-128h-128z" />
    <glyph glyph-name="uni03EC" unicode="&#x3ec;" horiz-adv-x="512" 
d="M0 0v512h128v-128h128v-128h-128v-128h128v128h128v-256h-384zM128 512v128h256v-128h-256z" />
    <glyph glyph-name="uni03ED" unicode="&#x3ed;" 
d="M256 128v128h-128v-128h128zM0 0v384h512v-128h-128v-256h-384z" />
    <glyph glyph-name="uni03EE" unicode="&#x3ee;" horiz-adv-x="512" 
d="M128 0v384h-128v128h128v128h128v-128h128v-128h-128v-384h-128z" />
    <glyph glyph-name="uni03EF" unicode="&#x3ef;" horiz-adv-x="512" 
d="M128 0v256h-128v128h128v128h128v-128h128v-128h-128v-256h-128z" />
    <glyph glyph-name="uni03F0" unicode="&#x3f0;" 
d="M0 0v512h128v-256h128v-128h-128v-128h-128zM384 0v256h-128v128h128v128h128v-512h-128z" />
    <glyph glyph-name="uni03F1" unicode="&#x3f1;" horiz-adv-x="512" 
d="M256 256v128h128v-128h-128zM128 0v128h-128v384h256v-128h-128v-128h128v-128h128v-128h-256z" />
    <glyph glyph-name="uni03F2" unicode="&#x3f2;" horiz-adv-x="512" 
d="M0 0v384h384v-128h-256v-128h256v-128h-384z" />
    <glyph glyph-name="uni03F3" unicode="&#x3f3;" horiz-adv-x="384" 
d="M0 -128v128h128v-128h-128zM128 0v256h128v-256h-128zM128 384v128h128v-128h-128z" />
    <glyph glyph-name="uni03F4" unicode="&#x3f4;" 
d="M128 0v128h256v-128h-256zM0 128v384h128v-128h256v128h128v-384h-128v128h-256v-128h-128zM128 512v128h256v-128h-256z" />
    <glyph glyph-name="uni03F5" unicode="&#x3f5;" horiz-adv-x="512" 
d="M128 0v128h256v-128h-256zM0 128v384h128v-128h128v-128h-128v-128h-128zM128 512v128h256v-128h-256z" />
    <glyph glyph-name="uni03F6" unicode="&#x3f6;" horiz-adv-x="512" 
d="M0 0v128h256v-128h-256zM256 128v128h-128v128h128v128h128v-384h-128zM0 512v128h256v-128h-256z" />
    <glyph glyph-name="uni03F7" unicode="&#x3f7;" 
d="M384 256v128h128v-128h-128zM0 0v640h128v-128h256v-128h-256v-128h256v-128h-256v-128h-128z" />
    <glyph glyph-name="uni03F8" unicode="&#x3f8;" horiz-adv-x="512" 
d="M256 256v128h128v-128h-128zM0 0v512h256v-128h-128v-128h128v-128h-128v-128h-128z" />
    <glyph glyph-name="uni03F9" unicode="&#x3f9;" 
d="M0 0v512h512v-128h-384v-256h384v-128h-512z" />
    <glyph glyph-name="uni03FA" unicode="&#x3fa;" horiz-adv-x="768" 
d="M256 128v128h128v-128h-128zM0 0v512h128v-128h128v-128h-128v-256h-128zM512 0v256h-128v128h128v128h128v-512h-128z" />
    <glyph glyph-name="uni03FB" unicode="&#x3fb;" horiz-adv-x="768" 
d="M256 0v128h128v-128h-128zM0 -128v512h128v-128h128v-128h-128v-256h-128zM512 0v128h-128v128h128v128h128v-384h-128z" />
    <glyph glyph-name="uni03FC" unicode="&#x3fc;" 
d="M384 256v128h-128v-128h128zM0 -128v128h128v512h384v-384h-256v-128h128v-128h-384z" />
    <glyph glyph-name="uni03FD" unicode="&#x3fd;" 
d="M0 0v128h384v384h-384v128h512v-640h-512z" />
    <glyph glyph-name="uni03FE" unicode="&#x3fe;" 
d="M256 256v128h128v-128h-128zM0 0v640h512v-128h-384v-384h384v-128h-512z" />
    <glyph glyph-name="uni03FF" unicode="&#x3ff;" 
d="M128 256v128h128v-128h-128zM0 0v128h384v384h-384v128h512v-640h-512z" />
    <glyph glyph-name="uni0400" unicode="&#x400;" 
d="M0 0v512h512v-128h-384v-128h128v-128h256v-128h-512zM128 640v128h128v-128h-128z" />
    <glyph glyph-name="afii10023" unicode="&#x401;" 
d="M0 0v512h512v-128h-384v-128h128v-128h256v-128h-512zM128 640v128h128v-128h-128zM384 640v128h128v-128h-128z" />
    <glyph glyph-name="afii10051" unicode="&#x402;" 
d="M128 0v384h-128v128h384v-128h-128v-128h256v-256h-384z" />
    <glyph glyph-name="afii10052" unicode="&#x403;" 
d="M0 0v512h512v-128h-384v-384h-128zM128 640v128h128v-128h-128z" />
    <glyph glyph-name="afii10053" unicode="&#x404;" 
d="M128 0v128h-128v256h128v-128h128v-128h256v-128h-384zM128 384v128h384v-128h-384z" />
    <glyph glyph-name="afii10054" unicode="&#x405;" 
d="M0 0v128h384v128h128v-256h-512zM0 256v256h512v-128h-384v-128h-128z" />
    <glyph glyph-name="afii10055" unicode="&#x406;" horiz-adv-x="256" 
d="M0 0v512h128v-512h-128z" />
    <glyph glyph-name="afii10056" unicode="&#x407;" horiz-adv-x="512" 
d="M128 0v384h128v-384h-128zM0 512v128h128v-128h-128zM256 512v128h128v-128h-128z" />
    <glyph glyph-name="afii10057" unicode="&#x408;" horiz-adv-x="384" 
d="M0 -128v128h128v-128h-128zM128 0v512h128v-512h-128z" />
    <glyph glyph-name="afii10058" unicode="&#x409;" horiz-adv-x="896" 
d="M640 128v128h128v-128h-128zM0 0v128h128v384h384v-128h128v-128h-128v-128h128v-128h-256v384h-128v-384h-256z" />
    <glyph glyph-name="afii10059" unicode="&#x40a;" horiz-adv-x="768" 
d="M512 128v128h128v-128h-128zM0 0v512h128v-256h128v256h128v-128h128v-128h-128v-128h128v-128h-256v128h-128v-128h-128z" />
    <glyph glyph-name="afii10060" unicode="&#x40b;" 
d="M128 0v384h-128v128h384v-128h-128v-128h256v-256h-128v128h-128v-128h-128z" />
    <glyph glyph-name="afii10061" unicode="&#x40c;" 
d="M384 0v128h128v-128h-128zM0 0v512h128v-256h256v-128h-256v-128h-128zM384 256v256h128v-256h-128zM128 640v128h128v-128h-128z" />
    <glyph glyph-name="uni040D" unicode="&#x40d;" 
d="M0 0v512h128v-256h128v-128h-128v-128h-128zM384 0v256h-128v128h128v128h128v-512h-128zM128 640v128h128v-128h-128z" />
    <glyph glyph-name="afii10062" unicode="&#x40e;" 
d="M128 0v128h256v-128h-256zM0 384v128h128v-128h-128zM384 128v128h-256v128h256v128h128v-384h-128zM128 640v128h256v-128h-256z" />
    <glyph glyph-name="afii10145" unicode="&#x40f;" 
d="M256 -128v128h-256v512h128v-384h256v384h128v-512h-128v-128h-128z" />
    <glyph glyph-name="afii10017" unicode="&#x410;" 
d="M0 0v384h128v-128h256v128h-256v128h384v-512h-128v128h-256v-128h-128z" />
    <glyph glyph-name="afii10018" unicode="&#x411;" 
d="M0 0v512h512v-128h-128v-128h-256v-128h256v128h128v-256h-512z" />
    <glyph glyph-name="afii10019" unicode="&#x412;" 
d="M0 0v512h384v-256h-128v128h-128v-256h256v128h128v-256h-512z" />
    <glyph glyph-name="afii10020" unicode="&#x413;" 
d="M0 0v512h512v-128h-384v-384h-128z" />
    <glyph glyph-name="afii10021" unicode="&#x414;" horiz-adv-x="768" 
d="M384 128v256h-128v-256h128zM0 0v128h128v384h384v-384h128v-128h-640z" />
    <glyph glyph-name="afii10022" unicode="&#x415;" 
d="M0 0v512h512v-128h-384v-128h128v-128h256v-128h-512z" />
    <glyph glyph-name="afii10024" unicode="&#x416;" horiz-adv-x="768" 
d="M0 0v128h128v-128h-128zM512 0v128h128v-128h-128zM0 256v256h128v-256h-128zM256 0v128h-128v128h128v256h128v-256h128v-128h-128v-128h-128zM512 256v256h128v-256h-128z" />
    <glyph glyph-name="afii10025" unicode="&#x417;" 
d="M128 0v128h256v128h-128v128h-256v128h384v-128h128v-384h-384z" />
    <glyph glyph-name="afii10026" unicode="&#x418;" 
d="M0 0v512h128v-256h128v-128h-128v-128h-128zM384 0v256h-128v128h128v128h128v-512h-128z" />
    <glyph glyph-name="afii10027" unicode="&#x419;" 
d="M0 0v512h128v-256h128v-128h-128v-128h-128zM384 0v256h-128v128h128v128h128v-512h-128zM128 640v128h256v-128h-256z" />
    <glyph glyph-name="afii10028" unicode="&#x41a;" 
d="M384 0v128h128v-128h-128zM0 0v512h128v-256h256v-128h-256v-128h-128zM384 256v256h128v-256h-128z" />
    <glyph glyph-name="afii10029" unicode="&#x41b;" horiz-adv-x="768" 
d="M0 0v128h128v384h512v-512h-128v384h-256v-384h-256z" />
    <glyph glyph-name="afii10030" unicode="&#x41c;" horiz-adv-x="768" 
d="M256 128v128h128v-128h-128zM0 0v512h128v-128h128v-128h-128v-256h-128zM512 0v256h-128v128h128v128h128v-512h-128z" />
    <glyph glyph-name="afii10031" unicode="&#x41d;" 
d="M0 0v512h128v-256h256v256h128v-512h-128v128h-256v-128h-128z" />
    <glyph glyph-name="afii10032" unicode="&#x41e;" 
d="M384 128v256h-256v-256h256zM0 0v512h512v-512h-512z" />
    <glyph glyph-name="afii10033" unicode="&#x41f;" 
d="M0 0v512h512v-512h-128v384h-256v-384h-128z" />
    <glyph glyph-name="afii10034" unicode="&#x420;" 
d="M384 256v128h-256v-128h256zM0 0v512h512v-384h-384v-128h-128z" />
    <glyph glyph-name="afii10035" unicode="&#x421;" 
d="M0 0v512h512v-128h-384v-256h384v-128h-512z" />
    <glyph glyph-name="afii10036" unicode="&#x422;" 
d="M128 0v384h-128v128h512v-128h-256v-384h-128z" />
    <glyph glyph-name="afii10037" unicode="&#x423;" 
d="M0 0v128h384v128h-384v256h128v-128h256v128h128v-512h-512z" />
    <glyph glyph-name="afii10038" unicode="&#x424;" horiz-adv-x="768" 
d="M0 128v256h128v-256h-128zM512 128v256h128v-256h-128zM128 0v128h128v256h-128v128h384v-128h-128v-256h128v-128h-384z" />
    <glyph glyph-name="afii10039" unicode="&#x425;" 
d="M0 0v128h128v-128h-128zM384 0v128h128v-128h-128zM128 128v256h128v-128h128v-128h-256zM0 384v128h128v-128h-128zM384 384v128h128v-128h-128z" />
    <glyph glyph-name="afii10040" unicode="&#x426;" horiz-adv-x="768" 
d="M512 -128v128h-512v512h128v-384h256v384h128v-384h128v-256h-128z" />
    <glyph glyph-name="afii10041" unicode="&#x427;" 
d="M384 0v128h-384v384h128v-256h256v256h128v-512h-128z" />
    <glyph glyph-name="afii10042" unicode="&#x428;" horiz-adv-x="768" 
d="M0 0v512h128v-384h128v384h128v-384h128v384h128v-512h-640z" />
    <glyph glyph-name="afii10043" unicode="&#x429;" horiz-adv-x="896" 
d="M640 -128v128h-640v512h128v-384h128v384h128v-384h128v384h128v-384h128v-256h-128z" />
    <glyph glyph-name="afii10044" unicode="&#x42a;" horiz-adv-x="768" 
d="M512 128v128h-256v-128h256zM128 0v384h-128v128h256v-128h384v-384h-512z" />
    <glyph glyph-name="afii10045" unicode="&#x42b;" horiz-adv-x="896" 
d="M384 128v128h-256v-128h256zM0 0v512h128v-128h384v-384h-512zM640 0v512h128v-512h-128z" />
    <glyph glyph-name="afii10046" unicode="&#x42c;" 
d="M384 128v128h-256v-128h256zM0 0v512h128v-128h384v-384h-512z" />
    <glyph glyph-name="afii10047" unicode="&#x42d;" 
d="M0 0v128h256v128h128v128h128v-256h-128v-128h-384zM0 384v128h384v-128h-384z" />
    <glyph glyph-name="afii10048" unicode="&#x42e;" horiz-adv-x="768" 
d="M512 128v256h-128v-256h128zM0 0v512h128v-256h128v256h384v-512h-384v128h-128v-128h-128z" />
    <glyph glyph-name="afii10049" unicode="&#x42f;" 
d="M0 0v128h128v-128h-128zM384 0v128h-256v128h256v128h-256v-128h-128v256h512v-512h-128z" />
    <glyph glyph-name="afii10065" unicode="&#x430;" 
d="M0 0v256h128v-128h128v128h-128v128h256v-256h128v-128h-512z" />
    <glyph glyph-name="afii10066" unicode="&#x431;" horiz-adv-x="512" 
d="M0 0v512h384v-128h-256v-128h256v-256h-384z" />
    <glyph glyph-name="afii10067" unicode="&#x432;" horiz-adv-x="512" 
d="M0 0v512h256v-256h-128v-128h128v128h128v-256h-384z" />
    <glyph glyph-name="afii10068" unicode="&#x433;" horiz-adv-x="512" 
d="M0 0v384h384v-128h-256v-256h-128z" />
    <glyph glyph-name="afii10069" unicode="&#x434;" horiz-adv-x="768" 
d="M384 128v128h-128v-128h128zM0 0v128h128v256h384v-256h128v-128h-640z" />
    <glyph glyph-name="afii10070" unicode="&#x435;" horiz-adv-x="512" 
d="M0 0v384h128v-128h128v-128h128v-128h-384z" />
    <glyph glyph-name="afii10072" unicode="&#x436;" horiz-adv-x="768" 
d="M0 0v128h128v-128h-128zM512 0v128h128v-128h-128zM0 256v128h128v-128h-128zM256 0v128h-128v128h128v128h128v-128h128v-128h-128v-128h-128zM512 256v128h128v-128h-128z" />
    <glyph glyph-name="afii10073" unicode="&#x437;" horiz-adv-x="512" 
d="M256 0v128h-128v128h-128v128h256v-128h128v-256h-128z" />
    <glyph glyph-name="afii10074" unicode="&#x438;" horiz-adv-x="512" 
d="M0 128v256h128v-256h-128zM128 0v128h128v256h128v-384h-256z" />
    <glyph glyph-name="afii10075" unicode="&#x439;" horiz-adv-x="512" 
d="M0 128v256h128v-256h-128zM128 0v128h128v256h128v-384h-256zM128 512v128h128v-128h-128z" />
    <glyph glyph-name="afii10076" unicode="&#x43a;" horiz-adv-x="512" 
d="M256 0v128h128v-128h-128zM0 0v384h128v-128h128v-128h-128v-128h-128zM256 256v128h128v-128h-128z" />
    <glyph glyph-name="afii10077" unicode="&#x43b;" horiz-adv-x="512" 
d="M0 0v256h128v-256h-128zM256 0v256h-128v128h256v-384h-128z" />
    <glyph glyph-name="afii10078" unicode="&#x43c;" horiz-adv-x="768" 
d="M0 0v256h128v-256h-128zM256 128v128h128v-128h-128zM512 0v256h128v-256h-128zM128 256v128h128v-128h-128zM384 256v128h128v-128h-128z" />
    <glyph glyph-name="afii10079" unicode="&#x43d;" horiz-adv-x="512" 
d="M0 0v384h128v-128h128v128h128v-384h-128v128h-128v-128h-128z" />
    <glyph glyph-name="afii10080" unicode="&#x43e;" horiz-adv-x="512" 
d="M256 128v128h-128v-128h128zM0 0v384h384v-384h-384z" />
    <glyph glyph-name="afii10081" unicode="&#x43f;" horiz-adv-x="512" 
d="M0 0v384h384v-384h-128v256h-128v-256h-128z" />
    <glyph glyph-name="afii10082" unicode="&#x440;" horiz-adv-x="512" 
d="M0 0v384h384v-256h-256v-128h-128z" />
    <glyph glyph-name="afii10083" unicode="&#x441;" horiz-adv-x="512" 
d="M0 0v384h384v-128h-256v-128h256v-128h-384z" />
    <glyph glyph-name="afii10084" unicode="&#x442;" horiz-adv-x="512" 
d="M128 0v256h-128v128h384v-128h-128v-256h-128z" />
    <glyph glyph-name="afii10085" unicode="&#x443;" horiz-adv-x="512" 
d="M0 256v128h128v-128h-128zM0 0v128h128v128h128v128h128v-256h-128v-128h-256z" />
    <glyph glyph-name="afii10086" unicode="&#x444;" horiz-adv-x="768" 
d="M0 128v128h128v-128h-128zM512 128v128h128v-128h-128zM128 0v128h128v128h-128v128h384v-128h-128v-128h128v-128h-384z" />
    <glyph glyph-name="afii10087" unicode="&#x445;" horiz-adv-x="512" 
d="M0 0v128h128v-128h-128zM256 0v128h128v-128h-128zM128 128v128h128v-128h-128zM0 256v128h128v-128h-128zM256 256v128h128v-128h-128z" />
    <glyph glyph-name="afii10088" unicode="&#x446;" 
d="M384 -128v128h-384v384h128v-256h128v256h128v-256h128v-256h-128z" />
    <glyph glyph-name="afii10089" unicode="&#x447;" horiz-adv-x="512" 
d="M256 0v128h-256v256h128v-128h128v128h128v-384h-128z" />
    <glyph glyph-name="afii10090" unicode="&#x448;" horiz-adv-x="768" 
d="M0 0v384h128v-256h128v128h128v-128h128v256h128v-384h-640z" />
    <glyph glyph-name="afii10091" unicode="&#x449;" horiz-adv-x="896" 
d="M640 -128v128h-640v384h128v-256h128v128h128v-128h128v256h128v-256h128v-256h-128z" />
    <glyph glyph-name="afii10092" unicode="&#x44a;" 
d="M128 0v256h-128v128h256v-128h256v-256h-384z" />
    <glyph glyph-name="afii10093" unicode="&#x44b;" horiz-adv-x="768" 
d="M0 0v384h128v-128h256v-256h-384zM512 0v384h128v-384h-128z" />
    <glyph glyph-name="afii10094" unicode="&#x44c;" horiz-adv-x="512" 
d="M0 0v384h128v-128h256v-256h-384z" />
    <glyph glyph-name="afii10095" unicode="&#x44d;" horiz-adv-x="512" 
d="M0 0v128h128v128h-128v128h256v-128h128v-128h-128v-128h-256z" />
    <glyph glyph-name="afii10096" unicode="&#x44e;" horiz-adv-x="768" 
d="M512 128v128h-128v-128h128zM0 0v384h128v-128h128v128h384v-384h-384v128h-128v-128h-128z" />
    <glyph glyph-name="afii10097" unicode="&#x44f;" horiz-adv-x="512" 
d="M0 0v128h128v-128h-128zM0 256v128h128v-128h-128zM256 0v128h-128v128h128v128h-128v128h256v-512h-128z" />
    <glyph glyph-name="uni0450" unicode="&#x450;" horiz-adv-x="512" 
d="M128 0v128h-128v256h128v-128h128v-128h128v-128h-256zM256 256v128h128v-128h-128zM128 384v128h128v-128h-128zM128 640v128h128v-128h-128z" />
    <glyph glyph-name="afii10071" unicode="&#x451;" horiz-adv-x="512" 
d="M0 0v384h128v-128h128v-128h128v-128h-384zM0 512v128h128v-128h-128zM256 512v128h128v-128h-128z" />
    <glyph glyph-name="afii10099" unicode="&#x452;" horiz-adv-x="768" 
d="M384 -128v128h128v-128h-128zM512 0v128h128v-128h-128zM128 0v384h-128v128h384v-128h-128v-128h256v-128h-256v-128h-128z" />
    <glyph glyph-name="afii10100" unicode="&#x453;" horiz-adv-x="512" 
d="M0 0v384h384v-128h-256v-256h-128zM128 512v128h128v-128h-128z" />
    <glyph glyph-name="afii10101" unicode="&#x454;" horiz-adv-x="512" 
d="M128 0v128h-128v256h128v-128h128v-128h128v-128h-256zM128 384v128h256v-128h-256z" />
    <glyph glyph-name="afii10102" unicode="&#x455;" horiz-adv-x="512" 
d="M0 0v128h128v256h256v-128h-128v-256h-256z" />
    <glyph glyph-name="afii10103" unicode="&#x456;" horiz-adv-x="256" 
d="M0 0v256h128v-256h-128zM0 384v128h128v-128h-128z" />
    <glyph glyph-name="afii10104" unicode="&#x457;" horiz-adv-x="512" 
d="M128 0v256h128v-256h-128zM0 384v128h128v-128h-128zM256 384v128h128v-128h-128z" />
    <glyph glyph-name="afii10105" unicode="&#x458;" horiz-adv-x="384" 
d="M0 -128v128h128v-128h-128zM128 0v256h128v-256h-128zM128 384v128h128v-128h-128z" />
    <glyph glyph-name="afii10106" unicode="&#x459;" horiz-adv-x="768" 
d="M0 0v256h128v-256h-128zM256 0v256h-128v128h256v-128h256v-256h-384z" />
    <glyph glyph-name="afii10107" unicode="&#x45a;" horiz-adv-x="768" 
d="M0 0v384h128v-128h128v128h128v-128h256v-256h-384v128h-128v-128h-128z" />
    <glyph glyph-name="afii10108" unicode="&#x45b;" 
d="M128 0v384h-128v128h384v-128h-128v-128h256v-256h-128v128h-128v-128h-128z" />
    <glyph glyph-name="afii10109" unicode="&#x45c;" horiz-adv-x="512" 
d="M256 0v128h128v-128h-128zM0 0v384h128v-128h128v-128h-128v-128h-128zM256 256v128h128v-128h-128zM128 512v128h128v-128h-128z" />
    <glyph glyph-name="uni045D" unicode="&#x45d;" horiz-adv-x="512" 
d="M0 128v256h128v-256h-128zM128 0v128h128v256h128v-384h-256zM128 512v128h128v-128h-128z" />
    <glyph glyph-name="afii10110" unicode="&#x45e;" horiz-adv-x="512" 
d="M0 256v128h128v-128h-128zM0 0v128h128v128h128v128h128v-256h-128v-128h-256zM128 512v128h128v-128h-128z" />
    <glyph glyph-name="afii10193" unicode="&#x45f;" horiz-adv-x="512" 
d="M128 -128v128h-128v384h128v-256h128v256h128v-384h-128v-128h-128z" />
    <glyph glyph-name="uni0460" unicode="&#x460;" horiz-adv-x="768" 
d="M128 0v128h128v-128h-128zM384 0v128h128v-128h-128zM256 128v256h128v-256h-128zM0 128v384h128v-384h-128zM512 128v384h128v-384h-128z" />
    <glyph glyph-name="uni0461" unicode="&#x461;" horiz-adv-x="768" 
d="M128 0v128h128v-128h-128zM384 0v128h128v-128h-128zM256 128v128h128v-128h-128zM0 128v256h128v-256h-128zM512 128v256h128v-256h-128z" />
    <glyph glyph-name="afii10146" unicode="&#x462;" 
d="M384 128v128h-128v-128h128zM128 0v512h-128v128h384v-128h-128v-128h256v-384h-384z" />
    <glyph glyph-name="afii10194" unicode="&#x463;" 
d="M128 0v384h-128v128h384v-128h-128v-128h256v-256h-384z" />
    <glyph glyph-name="uni0464" unicode="&#x464;" horiz-adv-x="768" 
d="M0 0v512h128v-256h128v128h128v-128h128v-128h128v-128h-256v128h-256v-128h-128zM384 384v128h256v-128h-256z" />
    <glyph glyph-name="uni0465" unicode="&#x465;" 
d="M0 0v384h128v-128h128v128h256v-128h-128v-128h128v-128h-256v128h-128v-128h-128z" />
    <glyph glyph-name="uni0466" unicode="&#x466;" horiz-adv-x="768" 
d="M0 0v128h128v-128h-128zM512 0v128h128v-128h-128zM256 0v128h-128v256h128v-128h128v128h128v-256h-128v-128h-128zM256 384v128h128v-128h-128z" />
    <glyph glyph-name="uni0467" unicode="&#x467;" horiz-adv-x="768" 
d="M0 0v128h128v-128h-128zM256 0v128h128v-128h-128zM512 0v128h128v-128h-128zM128 128v128h128v-128h-128zM384 128v128h128v-128h-128zM256 256v128h128v-128h-128z" />
    <glyph glyph-name="uni0468" unicode="&#x468;" horiz-adv-x="1024" 
d="M768 0v128h128v-128h-128zM0 0v512h128v-256h256v128h128v-128h128v128h128v-256h-128v-128h-128v128h-128v-128h-128v128h-128v-128h-128zM512 384v128h128v-128h-128z" />
    <glyph glyph-name="uni0469" unicode="&#x469;" horiz-adv-x="1024" 
d="M512 0v128h128v-128h-128zM768 0v128h128v-128h-128zM640 128v128h128v-128h-128zM0 0v384h128v-128h384v-128h-128v-128h-128v128h-128v-128h-128zM512 256v128h128v-128h-128z" />
    <glyph glyph-name="uni046A" unicode="&#x46a;" horiz-adv-x="768" 
d="M0 0v128h128v-128h-128zM512 0v128h128v-128h-128zM384 256v128h-128v-128h128zM256 0v128h-128v256h-128v128h640v-128h-128v-256h-128v-128h-128z" />
    <glyph glyph-name="uni046B" unicode="&#x46b;" horiz-adv-x="768" 
d="M0 0v128h128v-128h-128zM256 0v128h128v-128h-128zM512 0v128h128v-128h-128zM128 128v256h384v-256h-128v128h-128v-128h-128z" />
    <glyph glyph-name="uni046C" unicode="&#x46c;" horiz-adv-x="1024" 
d="M768 0v128h128v-128h-128zM640 256v128h-128v-128h128zM0 0v512h128v-256h256v128h-128v128h640v-128h-128v-256h-128v-128h-128v128h-128v-128h-128v128h-128v-128h-128z" />
    <glyph glyph-name="uni046D" unicode="&#x46d;" horiz-adv-x="1024" 
d="M512 0v128h128v-128h-128zM768 0v128h128v-128h-128zM0 0v384h128v-128h256v128h384v-256h-128v128h-128v-128h-128v-128h-128v128h-128v-128h-128z" />
    <glyph glyph-name="uni046E" unicode="&#x46e;" 
d="M0 -128v256h384v128h-128v128h-256v128h384v-128h128v-384h-256v-128h-256zM128 640v128h128v-128h-128z" />
    <glyph glyph-name="uni046F" unicode="&#x46f;" horiz-adv-x="512" 
d="M128 -128v256h128v128h-128v128h-128v128h256v-128h128v-384h-128v-128h-128zM128 640v128h128v-128h-128z" />
    <glyph glyph-name="uni0470" unicode="&#x470;" horiz-adv-x="768" 
d="M0 256v256h128v-256h-128zM256 0v128h-128v128h128v256h128v-256h128v-128h-128v-128h-128zM512 256v256h128v-256h-128z" />
    <glyph glyph-name="uni0471" unicode="&#x471;" horiz-adv-x="768" 
d="M0 256v128h128v-128h-128zM256 0v128h-128v128h128v128h128v-128h128v-128h-128v-128h-128zM512 256v128h128v-128h-128z" />
    <glyph glyph-name="afii10147" unicode="&#x472;" 
d="M128 0v128h256v-128h-256zM0 128v384h128v-128h256v128h128v-384h-128v128h-256v-128h-128zM128 512v128h256v-128h-256z" />
    <glyph glyph-name="afii10195" unicode="&#x473;" horiz-adv-x="512" 
d="M128 0v128h128v-128h-128zM0 128v384h128v-128h128v128h128v-384h-128v128h-128v-128h-128zM128 512v128h128v-128h-128z" />
    <glyph glyph-name="afii10148" unicode="&#x474;" horiz-adv-x="768" 
d="M256 0v128h128v-128h-128zM128 128v128h128v-128h-128zM0 256v256h128v-256h-128zM384 128v384h256v-128h-128v-256h-128z" />
    <glyph glyph-name="afii10196" unicode="&#x475;" 
d="M128 0v128h128v-128h-128zM0 128v256h128v-256h-128zM256 128v256h256v-128h-128v-128h-128z" />
    <glyph glyph-name="uni0476" unicode="&#x476;" 
d="M256 0v128h128v-128h-128zM128 128v128h128v-128h-128zM0 256v256h128v-256h-128zM384 128v384h128v-384h-128zM128 640v128h128v-128h-128zM384 640v128h128v-128h-128z" />
    <glyph glyph-name="uni0477" unicode="&#x477;" horiz-adv-x="512" 
d="M128 0v128h128v-128h-128zM0 128v256h128v-256h-128zM256 128v256h128v-256h-128zM0 512v128h128v-128h-128zM256 512v128h128v-128h-128z" />
    <glyph glyph-name="uni0478" unicode="&#x478;" horiz-adv-x="1152" 
d="M384 128v256h-256v-256h256zM640 256v128h128v-128h-128zM640 0v128h128v128h128v128h128v-256h-128v-128h-256zM0 0v512h512v-512h-512z" />
    <glyph glyph-name="uni0479" unicode="&#x479;" horiz-adv-x="1024" 
d="M256 128v128h-128v-128h128zM0 0v384h384v-384h-384zM512 256v128h128v-128h-128zM512 0v128h128v128h128v128h128v-256h-128v-128h-256z" />
    <glyph glyph-name="uni047A" unicode="&#x47a;" 
d="M384 128v256h-256v-256h256zM128 -128v128h-128v512h128v128h128v-128h256v-512h-256v-128h-128z" />
    <glyph glyph-name="uni047B" unicode="&#x47b;" horiz-adv-x="512" 
d="M256 128v128h-128v-128h128zM128 -128v128h-128v384h128v128h128v-128h128v-384h-128v-128h-128z" />
    <glyph glyph-name="uni047C" unicode="&#x47c;" horiz-adv-x="768" 
d="M128 0v128h128v-128h-128zM384 0v128h128v-128h-128zM256 128v256h128v-256h-128zM0 128v384h128v-384h-128zM512 128v384h128v-384h-128zM128 512v256h256v128h128v-256h-256v-128h-128z" />
    <glyph glyph-name="uni047D" unicode="&#x47d;" horiz-adv-x="768" 
d="M128 0v128h128v-128h-128zM384 0v128h128v-128h-128zM256 128v128h128v-128h-128zM0 128v256h128v-256h-128zM512 128v256h128v-256h-128zM128 384v256h256v128h128v-256h-256v-128h-128z" />
    <glyph glyph-name="uni047E" unicode="&#x47e;" horiz-adv-x="768" 
d="M128 0v128h128v-128h-128zM384 0v128h128v-128h-128zM256 128v256h128v-256h-128zM0 128v384h128v-384h-128zM512 128v384h128v-384h-128zM0 640v256h640v-256h-128v128h-128v-128h-128v128h-128v-128h-128z" />
    <glyph glyph-name="uni047F" unicode="&#x47f;" horiz-adv-x="768" 
d="M128 0v128h128v-128h-128zM384 0v128h128v-128h-128zM256 128v128h128v-128h-128zM0 128v256h128v-256h-128zM512 128v256h128v-256h-128zM0 512v256h640v-256h-128v128h-128v-128h-128v128h-128v-128h-128z" />
    <glyph glyph-name="uni0480" unicode="&#x480;" 
d="M384 -128v128h-384v512h512v-128h-384v-256h384v-256h-128z" />
    <glyph glyph-name="uni0481" unicode="&#x481;" horiz-adv-x="512" 
d="M256 -128v128h-256v384h384v-128h-256v-128h256v-256h-128z" />
    <glyph glyph-name="uni0482" unicode="&#x482;" horiz-adv-x="512" 
d="M128 0v128h-128v128h128v128h-128v128h128v128h128v-128h128v-128h-128v-128h128v-128h-128v-128h-128z" />
    <glyph glyph-name="uni0483" unicode="&#x483;" 
d="M0 256v256h384v128h128v-256h-384v-128h-128z" />
    <glyph glyph-name="uni0484" unicode="&#x484;" 
d="M0 384v128h256v-128h-256zM384 384v128h128v-128h-128zM256 512v128h128v-128h-128z" />
    <glyph glyph-name="uni0485" unicode="&#x485;" 
d="M0 256v384h128v-128h384v-128h-384v-128h-128z" />
    <glyph glyph-name="uni0486" unicode="&#x486;" 
d="M384 256v128h-384v128h384v128h128v-384h-128z" />
    <glyph glyph-name="uni0487" unicode="&#x487;" 
d="M0 384v128h128v-128h-128zM256 384v128h256v-128h-256zM128 512v128h128v-128h-128z" />
    <glyph glyph-name="uni0488" unicode="&#x488;" horiz-adv-x="1536" 
d="M512 -128v128h128v-128h-128zM768 -128v128h128v-128h-128zM0 0v128h128v-128h-128zM256 0v128h128v-128h-128zM640 0v128h128v-128h-128zM1024 0v128h128v-128h-128zM1280 0v128h128v-128h-128zM128 128v128h128v-128h-128zM1152 128v128h128v-128h-128zM0 384v128h128
v-128h-128zM256 384v128h128v-128h-128zM1024 384v128h128v-128h-128zM1280 384v128h128v-128h-128zM128 512v128h128v-128h-128zM512 512v128h128v-128h-128zM768 512v128h128v-128h-128zM1152 512v128h128v-128h-128zM640 640v128h128v-128h-128z" />
    <glyph glyph-name="uni0489" unicode="&#x489;" horiz-adv-x="1024" 
d="M256 -128v128h128v128h128v-256h-256zM0 0v256h128v-128h128v-128h-256zM768 0v128h-128v128h256v-256h-128zM0 384v256h128v-128h128v-128h-256zM768 384v128h-128v128h256v-256h-128zM384 512v256h256v-128h-128v-128h-128z" />
    <glyph glyph-name="uni048A" unicode="&#x48a;" horiz-adv-x="768" 
d="M512 -128v128h128v-128h-128zM0 0v512h128v-256h128v-128h-128v-128h-128zM384 0v256h-128v128h128v128h128v-512h-128zM128 640v128h256v-128h-256z" />
    <glyph glyph-name="uni048B" unicode="&#x48b;" 
d="M384 -128v128h128v-128h-128zM0 128v256h128v-256h-128zM128 0v128h128v256h128v-384h-256zM128 512v128h128v-128h-128z" />
    <glyph glyph-name="uni048C" unicode="&#x48c;" 
d="M384 128v128h-128v-128h128zM128 0v512h-128v128h384v-128h-128v-128h256v-384h-384z" />
    <glyph glyph-name="uni048D" unicode="&#x48d;" 
d="M128 0v384h-128v128h384v-128h-128v-128h256v-256h-384z" />
    <glyph glyph-name="uni048E" unicode="&#x48e;" 
d="M384 256v128h-256v-128h256zM0 0v512h512v-384h-128v-128h-128v128h-128v-128h-128z" />
    <glyph glyph-name="uni048F" unicode="&#x48f;" horiz-adv-x="512" 
d="M0 0v384h384v-256h-256v-128h-128z" />
    <glyph glyph-name="afii10050" unicode="&#x490;" 
d="M0 0v512h384v128h128v-256h-384v-384h-128z" />
    <glyph glyph-name="afii10098" unicode="&#x491;" horiz-adv-x="512" 
d="M0 0v384h256v128h128v-256h-256v-256h-128z" />
    <glyph glyph-name="uni0492" unicode="&#x492;" horiz-adv-x="768" 
d="M128 0v128h-128v128h128v256h512v-128h-384v-128h128v-128h-128v-128h-128z" />
    <glyph glyph-name="uni0493" unicode="&#x493;" 
d="M128 0v128h-128v128h128v128h384v-128h-128v-128h-128v-128h-128z" />
    <glyph glyph-name="uni0494" unicode="&#x494;" horiz-adv-x="512" 
d="M0 0v512h384v-128h-256v-128h256v-256h-128v128h-128v-128h-128z" />
    <glyph glyph-name="uni0495" unicode="&#x495;" horiz-adv-x="512" 
d="M0 0v512h256v-128h-128v-128h256v-256h-128v128h-128v-128h-128z" />
    <glyph glyph-name="uni0496" unicode="&#x496;" horiz-adv-x="896" 
d="M0 0v128h128v-128h-128zM640 -128v128h-128v128h256v-256h-128zM256 0v128h-128v128h128v128h128v-128h128v-128h-128v-128h-128zM0 256v256h128v-256h-128zM512 256v256h128v-256h-128z" />
    <glyph glyph-name="uni0497" unicode="&#x497;" horiz-adv-x="896" 
d="M0 0v128h128v-128h-128zM640 -128v128h-128v128h256v-256h-128zM0 256v128h128v-128h-128zM256 0v128h-128v128h128v128h128v-128h128v-128h-128v-128h-128zM512 256v128h128v-128h-128z" />
    <glyph glyph-name="uni0498" unicode="&#x498;" 
d="M256 -128v128h-128v128h256v128h-128v128h-256v128h384v-128h128v-384h-128v-128h-128z" />
    <glyph glyph-name="uni0499" unicode="&#x499;" horiz-adv-x="512" 
d="M128 -128v128h128v-128h-128zM256 0v128h-128v128h-128v128h256v-128h128v-256h-128z" />
    <glyph glyph-name="uni049A" unicode="&#x49a;" horiz-adv-x="768" 
d="M512 -128v128h128v-128h-128zM384 0v128h128v-128h-128zM0 0v512h128v-256h256v-128h-256v-128h-128zM384 256v256h128v-256h-128z" />
    <glyph glyph-name="uni049B" unicode="&#x49b;" 
d="M384 -128v128h128v-128h-128zM256 0v128h128v-128h-128zM0 0v384h128v-128h128v-128h-128v-128h-128zM256 256v128h128v-128h-128z" />
    <glyph glyph-name="uni049C" unicode="&#x49c;" 
d="M384 0v128h128v-128h-128zM0 0v512h128v-256h128v128h128v-256h-256v-128h-128zM384 384v128h128v-128h-128z" />
    <glyph glyph-name="uni049D" unicode="&#x49d;" horiz-adv-x="512" 
d="M256 0v128h128v-128h-128zM0 0v384h128v-128h128v-128h-128v-128h-128zM256 256v128h128v-128h-128z" />
    <glyph glyph-name="uni049E" unicode="&#x49e;" horiz-adv-x="768" 
d="M512 0v128h128v-128h-128zM128 0v384h-128v128h384v-128h-128v-128h256v-128h-256v-128h-128zM512 256v256h128v-256h-128z" />
    <glyph glyph-name="uni049F" unicode="&#x49f;" 
d="M384 0v128h128v-128h-128zM384 256v128h128v-128h-128zM128 0v256h-128v128h128v128h128v-256h128v-128h-128v-128h-128z" />
    <glyph glyph-name="uni04A0" unicode="&#x4a0;" horiz-adv-x="768" 
d="M512 0v128h128v-128h-128zM128 0v384h-128v128h256v-256h128v128h128v-256h-256v-128h-128zM512 384v128h128v-128h-128z" />
    <glyph glyph-name="uni04A1" unicode="&#x4a1;" 
d="M384 0v128h128v-128h-128zM128 0v256h-128v128h256v-128h128v-128h-128v-128h-128zM384 256v128h128v-128h-128z" />
    <glyph glyph-name="uni04A2" unicode="&#x4a2;" horiz-adv-x="768" 
d="M512 -128v128h128v-128h-128zM0 0v512h128v-256h256v256h128v-512h-128v128h-256v-128h-128z" />
    <glyph glyph-name="uni04A3" unicode="&#x4a3;" 
d="M384 -128v128h128v-128h-128zM0 0v384h128v-128h128v128h128v-384h-128v128h-128v-128h-128z" />
    <glyph glyph-name="uni04A4" unicode="&#x4a4;" horiz-adv-x="896" 
d="M0 0v512h128v-256h256v256h384v-128h-256v-384h-128v128h-256v-128h-128z" />
    <glyph glyph-name="uni04A5" unicode="&#x4a5;" horiz-adv-x="768" 
d="M0 0v384h128v-128h128v128h384v-128h-256v-256h-128v128h-128v-128h-128z" />
    <glyph glyph-name="uni04A6" unicode="&#x4a6;" horiz-adv-x="896" 
d="M640 0v256h128v-256h-128zM0 0v512h512v-128h128v-128h-128v-256h-128v384h-256v-384h-128z" />
    <glyph glyph-name="uni04A7" unicode="&#x4a7;" horiz-adv-x="768" 
d="M512 0v128h128v-128h-128zM0 0v384h384v-128h128v-128h-128v-128h-128v256h-128v-256h-128z" />
    <glyph glyph-name="uni04A8" unicode="&#x4a8;" horiz-adv-x="768" 
d="M512 -128v128h128v-128h-128zM128 0v128h128v128h128v-128h128v-128h-384zM0 128v256h128v-256h-128zM512 128v128h-128v128h-256v128h384v-128h128v-256h-128z" />
    <glyph glyph-name="uni04A9" unicode="&#x4a9;" horiz-adv-x="768" 
d="M512 -128v128h128v-128h-128zM256 128v128h-128v-128h128zM512 128v128h128v-128h-128zM0 0v384h512v-128h-128v-128h128v-128h-512z" />
    <glyph glyph-name="uni04AA" unicode="&#x4aa;" 
d="M256 -128v128h-256v512h512v-128h-384v-256h384v-128h-128v-128h-128z" />
    <glyph glyph-name="uni04AB" unicode="&#x4ab;" horiz-adv-x="512" 
d="M128 -128v128h-128v384h384v-128h-256v-128h256v-128h-128v-128h-128z" />
    <glyph glyph-name="uni04AC" unicode="&#x4ac;" 
d="M256 -128v128h128v-128h-128zM128 0v384h-128v128h512v-128h-256v-384h-128z" />
    <glyph glyph-name="uni04AD" unicode="&#x4ad;" horiz-adv-x="512" 
d="M256 -128v128h128v-128h-128zM128 0v256h-128v128h384v-128h-128v-256h-128z" />
    <glyph glyph-name="uni04AE" unicode="&#x4ae;" 
d="M256 0v256h128v-256h-128zM128 256v128h128v-128h-128zM0 384v128h128v-128h-128zM384 256v256h128v-256h-128z" />
    <glyph glyph-name="uni04AF" unicode="&#x4af;" horiz-adv-x="512" 
d="M128 0v256h128v-256h-128zM0 256v128h128v-128h-128zM256 256v128h128v-128h-128z" />
    <glyph glyph-name="uni04B0" unicode="&#x4b0;" horiz-adv-x="768" 
d="M256 -128v128h-128v128h128v128h128v-128h128v-128h-128v-128h-128zM128 256v128h128v-128h-128zM384 256v128h128v-128h-128zM0 384v128h128v-128h-128zM512 384v128h128v-128h-128z" />
    <glyph glyph-name="uni04B1" unicode="&#x4b1;" horiz-adv-x="512" 
d="M128 -128v128h-128v128h128v128h128v-128h128v-128h-128v-128h-128zM0 256v128h128v-128h-128zM256 256v128h128v-128h-128z" />
    <glyph glyph-name="uni04B2" unicode="&#x4b2;" horiz-adv-x="768" 
d="M512 -128v128h128v-128h-128zM0 0v128h128v-128h-128zM384 0v128h128v-128h-128zM128 128v256h128v-128h128v-128h-256zM0 384v128h128v-128h-128zM384 384v128h128v-128h-128z" />
    <glyph glyph-name="uni04B3" unicode="&#x4b3;" 
d="M384 -128v128h128v-128h-128zM0 0v128h128v-128h-128zM256 0v128h128v-128h-128zM128 128v128h128v-128h-128zM0 256v128h128v-128h-128zM256 256v128h128v-128h-128z" />
    <glyph glyph-name="uni04B4" unicode="&#x4b4;" horiz-adv-x="896" 
d="M640 -128v128h128v-128h-128zM128 0v384h-128v128h384v-128h-128v-256h256v384h128v-512h-512z" />
    <glyph glyph-name="uni04B5" unicode="&#x4b5;" horiz-adv-x="768" 
d="M512 -128v128h128v-128h-128zM128 0v256h-128v128h256v-256h128v256h128v-384h-384z" />
    <glyph glyph-name="uni04B6" unicode="&#x4b6;" horiz-adv-x="768" 
d="M512 -128v128h128v-128h-128zM384 0v128h-384v384h128v-256h256v256h128v-512h-128z" />
    <glyph glyph-name="uni04B7" unicode="&#x4b7;" 
d="M384 -128v128h128v-128h-128zM256 0v128h-256v256h128v-128h128v128h128v-384h-128z" />
    <glyph glyph-name="uni04B8" unicode="&#x4b8;" 
d="M384 0v128h-384v384h128v-256h256v256h128v-512h-128z" />
    <glyph glyph-name="uni04B9" unicode="&#x4b9;" horiz-adv-x="512" 
d="M256 0v128h-256v256h128v-128h128v128h128v-384h-128z" />
    <glyph glyph-name="uni04BA" unicode="&#x4ba;" horiz-adv-x="512" 
d="M0 0v512h128v-128h256v-384h-128v256h-128v-256h-128z" />
    <glyph glyph-name="uni04BB" unicode="&#x4bb;" horiz-adv-x="512" 
d="M0 0v384h128v-128h256v-256h-128v128h-128v-128h-128z" />
    <glyph glyph-name="uni04BC" unicode="&#x4bc;" 
d="M256 0v128h-256v128h128v128h128v-128h128v-128h128v-128h-256zM384 256v128h128v-128h-128zM256 384v128h128v-128h-128z" />
    <glyph glyph-name="uni04BD" unicode="&#x4bd;" 
d="M128 0v128h-128v128h128v128h384v-256h-256v-128h-128z" />
    <glyph glyph-name="uni04BE" unicode="&#x4be;" 
d="M256 -128v256h-256v128h128v128h128v-128h128v-128h128v-128h-128v-128h-128zM384 256v128h128v-128h-128zM256 384v128h128v-128h-128z" />
    <glyph glyph-name="uni04BF" unicode="&#x4bf;" 
d="M256 -128v128h128v-128h-128zM128 0v128h-128v128h128v128h384v-256h-256v-128h-128z" />
    <glyph glyph-name="uni04C0" unicode="&#x4c0;" horiz-adv-x="256" 
d="M0 0v512h128v-512h-128z" />
    <glyph glyph-name="uni04C1" unicode="&#x4c1;" horiz-adv-x="768" 
d="M0 0v128h128v-128h-128zM512 0v128h128v-128h-128zM256 0v128h-128v128h128v128h128v-128h128v-128h-128v-128h-128zM0 256v256h128v-256h-128zM512 256v256h128v-256h-128zM128 640v128h256v-128h-256z" />
    <glyph glyph-name="uni04C2" unicode="&#x4c2;" horiz-adv-x="768" 
d="M0 0v128h128v-128h-128zM512 0v128h128v-128h-128zM0 256v128h128v-128h-128zM256 0v128h-128v128h128v128h128v-128h128v-128h-128v-128h-128zM512 256v128h128v-128h-128zM128 512v128h256v-128h-256z" />
    <glyph glyph-name="uni04C3" unicode="&#x4c3;" 
d="M256 -128v128h128v-128h-128zM384 0v128h128v-128h-128zM0 0v512h128v-256h128v128h128v-256h-256v-128h-128zM384 384v128h128v-128h-128z" />
    <glyph glyph-name="uni04C4" unicode="&#x4c4;" horiz-adv-x="512" 
d="M256 -128v256h128v-256h-128zM0 0v384h128v-128h128v-128h-128v-128h-128zM256 256v128h128v-128h-128z" />
    <glyph glyph-name="uni04C5" unicode="&#x4c5;" horiz-adv-x="768" 
d="M512 -128v128h128v-128h-128zM0 0v384h128v-384h-128zM384 0v384h-256v128h384v-512h-128z" />
    <glyph glyph-name="uni04C6" unicode="&#x4c6;" 
d="M384 -128v128h128v-128h-128zM0 0v256h128v-256h-128zM256 0v256h-128v128h256v-384h-128z" />
    <glyph glyph-name="uni04C7" unicode="&#x4c7;" 
d="M256 -128v128h128v-128h-128zM0 0v512h128v-256h256v256h128v-512h-128v128h-256v-128h-128z" />
    <glyph glyph-name="uni04C8" unicode="&#x4c8;" horiz-adv-x="512" 
d="M256 -128v256h-128v-128h-128v384h128v-128h128v128h128v-512h-128z" />
    <glyph glyph-name="uni04C9" unicode="&#x4c9;" horiz-adv-x="768" 
d="M512 -128v128h128v-128h-128zM0 0v512h128v-256h256v256h128v-512h-128v128h-256v-128h-128z" />
    <glyph glyph-name="uni04CA" unicode="&#x4ca;" 
d="M384 -128v128h128v-128h-128zM0 0v384h128v-128h128v128h128v-384h-128v128h-128v-128h-128z" />
    <glyph glyph-name="uni04CB" unicode="&#x4cb;" 
d="M256 -128v128h128v-128h-128zM384 0v128h-384v384h128v-256h256v256h128v-512h-128z" />
    <glyph glyph-name="uni04CC" unicode="&#x4cc;" horiz-adv-x="512" 
d="M128 -128v128h128v-128h-128zM256 0v128h-256v256h128v-128h128v128h128v-384h-128z" />
    <glyph glyph-name="uni04CD" unicode="&#x4cd;" horiz-adv-x="896" 
d="M640 -128v128h128v-128h-128zM256 128v128h128v-128h-128zM0 0v512h128v-128h128v-128h-128v-256h-128zM512 0v256h-128v128h128v128h128v-512h-128z" />
    <glyph glyph-name="uni04CE" unicode="&#x4ce;" horiz-adv-x="896" 
d="M640 -128v128h128v-128h-128zM256 0v128h128v-128h-128zM0 0v384h128v-128h128v-128h-128v-128h-128zM512 0v128h-128v128h128v128h128v-384h-128z" />
    <glyph glyph-name="uni04CF" unicode="&#x4cf;" horiz-adv-x="256" 
d="M0 0v384h128v-384h-128z" />
    <glyph glyph-name="uni04D0" unicode="&#x4d0;" 
d="M0 0v384h128v-128h256v128h-256v128h384v-512h-128v128h-256v-128h-128zM128 640v128h256v-128h-256z" />
    <glyph glyph-name="uni04D1" unicode="&#x4d1;" 
d="M0 0v256h128v-128h128v128h-128v128h256v-256h128v-128h-512zM128 512v128h256v-128h-256z" />
    <glyph glyph-name="uni04D2" unicode="&#x4d2;" 
d="M0 0v384h128v-128h256v128h-256v128h384v-512h-128v128h-256v-128h-128zM128 640v128h128v-128h-128zM384 640v128h128v-128h-128z" />
    <glyph glyph-name="uni04D3" unicode="&#x4d3;" 
d="M0 0v256h128v-128h128v128h-128v128h256v-256h128v-128h-512zM0 512v128h128v-128h-128zM256 512v128h128v-128h-128z" />
    <glyph glyph-name="uni04D4" unicode="&#x4d4;" horiz-adv-x="896" 
d="M0 0v384h128v-128h256v128h-256v128h640v-128h-256v-128h128v-128h128v-128h-384v128h-256v-128h-128z" />
    <glyph glyph-name="uni04D5" unicode="&#x4d5;" horiz-adv-x="768" 
d="M0 0v256h128v-128h128v128h-128v128h-128v128h640v-256h-128v128h-128v-128h128v-128h128v-128h-640z" />
    <glyph glyph-name="uni04D6" unicode="&#x4d6;" 
d="M0 0v512h512v-128h-384v-128h128v-128h256v-128h-512zM128 640v128h256v-128h-256z" />
    <glyph glyph-name="uni04D7" unicode="&#x4d7;" horiz-adv-x="512" 
d="M0 0v384h384v-256h-256v-128h-128zM128 512v128h256v-128h-256z" />
    <glyph glyph-name="uni04D8" unicode="&#x4d8;" 
d="M128 0v128h256v-128h-256zM0 128v128h128v-128h-128zM384 128v128h-256v128h-128v128h384v-128h128v-256h-128z" />
    <glyph glyph-name="afii10846" unicode="&#x4d9;" horiz-adv-x="512" 
d="M128 0v128h-128v128h256v128h128v-384h-256zM0 384v128h256v-128h-256z" />
    <glyph glyph-name="uni04DA" unicode="&#x4da;" 
d="M128 0v128h256v-128h-256zM0 128v128h128v-128h-128zM384 128v128h-256v128h-128v128h384v-128h128v-256h-128zM128 640v128h128v-128h-128zM384 640v128h128v-128h-128z" />
    <glyph glyph-name="uni04DB" unicode="&#x4db;" horiz-adv-x="512" 
d="M128 0v128h-128v128h256v128h128v-384h-256zM0 384v128h256v-128h-256zM0 640v128h128v-128h-128zM256 640v128h128v-128h-128z" />
    <glyph glyph-name="uni04DC" unicode="&#x4dc;" horiz-adv-x="768" 
d="M0 0v128h128v-128h-128zM512 0v128h128v-128h-128zM256 0v128h-128v128h128v128h128v-128h128v-128h-128v-128h-128zM0 256v256h128v-256h-128zM512 256v256h128v-256h-128zM128 640v128h128v-128h-128zM384 640v128h128v-128h-128z" />
    <glyph glyph-name="uni04DD" unicode="&#x4dd;" horiz-adv-x="768" 
d="M0 0v128h128v-128h-128zM512 0v128h128v-128h-128zM0 256v128h128v-128h-128zM256 0v128h-128v128h128v128h128v-128h128v-128h-128v-128h-128zM512 256v128h128v-128h-128zM128 512v128h128v-128h-128zM384 512v128h128v-128h-128z" />
    <glyph glyph-name="uni04DE" unicode="&#x4de;" 
d="M128 0v128h256v128h-128v128h-256v128h384v-128h128v-384h-384zM128 640v128h128v-128h-128zM384 640v128h128v-128h-128z" />
    <glyph glyph-name="uni04DF" unicode="&#x4df;" horiz-adv-x="512" 
d="M256 0v128h-128v128h-128v128h256v-128h128v-256h-128zM0 512v128h128v-128h-128zM256 512v128h128v-128h-128z" />
    <glyph glyph-name="uni04E0" unicode="&#x4e0;" 
d="M128 0v128h256v128h128v-256h-384zM256 256v128h-256v128h512v-128h-128v-128h-128z" />
    <glyph glyph-name="uni04E1" unicode="&#x4e1;" horiz-adv-x="512" 
d="M128 0v128h128v128h128v-256h-256zM128 256v128h-128v128h384v-128h-128v-128h-128z" />
    <glyph glyph-name="uni04E2" unicode="&#x4e2;" 
d="M0 0v512h128v-256h128v-128h-128v-128h-128zM384 0v256h-128v128h128v128h128v-512h-128zM128 640v128h256v-128h-256z" />
    <glyph glyph-name="uni04E3" unicode="&#x4e3;" horiz-adv-x="512" 
d="M0 128v256h128v-256h-128zM128 0v128h128v256h128v-384h-256zM128 512v128h256v-128h-256z" />
    <glyph glyph-name="uni04E4" unicode="&#x4e4;" 
d="M0 0v512h128v-256h128v-128h-128v-128h-128zM384 0v256h-128v128h128v128h128v-512h-128zM128 640v128h128v-128h-128zM384 640v128h128v-128h-128z" />
    <glyph glyph-name="uni04E5" unicode="&#x4e5;" horiz-adv-x="512" 
d="M0 128v256h128v-256h-128zM128 0v128h128v256h128v-384h-256zM0 512v128h128v-128h-128zM256 512v128h128v-128h-128z" />
    <glyph glyph-name="uni04E6" unicode="&#x4e6;" 
d="M384 128v256h-256v-256h256zM0 0v512h512v-512h-512zM128 640v128h128v-128h-128zM384 640v128h128v-128h-128z" />
    <glyph glyph-name="uni04E7" unicode="&#x4e7;" horiz-adv-x="512" 
d="M256 128v128h-128v-128h128zM0 0v384h384v-384h-384zM0 512v128h128v-128h-128zM256 512v128h128v-128h-128z" />
    <glyph glyph-name="uni04E8" unicode="&#x4e8;" 
d="M128 0v128h256v-128h-256zM0 128v384h128v-128h256v128h128v-384h-128v128h-256v-128h-128zM128 512v128h256v-128h-256z" />
    <glyph glyph-name="uni04E9" unicode="&#x4e9;" horiz-adv-x="512" 
d="M128 0v128h128v-128h-128zM0 128v384h128v-128h128v128h128v-384h-128v128h-128v-128h-128zM128 512v128h128v-128h-128z" />
    <glyph glyph-name="uni04EA" unicode="&#x4ea;" 
d="M128 0v128h256v-128h-256zM0 128v384h128v-128h256v128h128v-384h-128v128h-256v-128h-128zM128 512v128h256v-128h-256zM128 768v128h128v-128h-128zM384 768v128h128v-128h-128z" />
    <glyph glyph-name="uni04EB" unicode="&#x4eb;" horiz-adv-x="512" 
d="M128 0v128h128v-128h-128zM0 128v384h128v-128h128v128h128v-384h-128v128h-128v-128h-128zM128 512v128h128v-128h-128zM0 768v128h128v-128h-128zM256 768v128h128v-128h-128z" />
    <glyph glyph-name="uni04EC" unicode="&#x4ec;" 
d="M0 0v128h256v128h128v128h128v-256h-128v-128h-384zM0 384v128h384v-128h-384zM0 640v128h128v-128h-128zM256 640v128h128v-128h-128z" />
    <glyph glyph-name="uni04ED" unicode="&#x4ed;" horiz-adv-x="512" 
d="M0 0v128h128v128h-128v128h256v-128h128v-128h-128v-128h-256zM0 512v128h128v-128h-128zM256 512v128h128v-128h-128z" />
    <glyph glyph-name="uni04EE" unicode="&#x4ee;" 
d="M128 0v128h256v-128h-256zM0 384v128h128v-128h-128zM384 128v128h-256v128h256v128h128v-384h-128zM128 640v128h256v-128h-256z" />
    <glyph glyph-name="uni04EF" unicode="&#x4ef;" horiz-adv-x="512" 
d="M0 256v128h128v-128h-128zM0 0v128h128v128h128v128h128v-256h-128v-128h-256zM128 512v128h256v-128h-256z" />
    <glyph glyph-name="uni04F0" unicode="&#x4f0;" 
d="M128 0v128h256v-128h-256zM0 384v128h128v-128h-128zM384 128v128h-256v128h256v128h128v-384h-128zM128 640v128h128v-128h-128zM384 640v128h128v-128h-128z" />
    <glyph glyph-name="uni04F1" unicode="&#x4f1;" horiz-adv-x="512" 
d="M0 256v128h128v-128h-128zM0 0v128h128v128h128v128h128v-256h-128v-128h-256zM0 512v128h128v-128h-128zM256 512v128h128v-128h-128z" />
    <glyph glyph-name="uni04F2" unicode="&#x4f2;" 
d="M128 0v128h256v-128h-256zM0 384v128h128v-128h-128zM384 128v128h-256v128h256v128h128v-384h-128zM128 640v128h128v-128h-128zM384 640v128h128v-128h-128z" />
    <glyph glyph-name="uni04F3" unicode="&#x4f3;" horiz-adv-x="512" 
d="M0 256v128h128v-128h-128zM0 0v128h128v128h128v128h128v-256h-128v-128h-256zM0 512v128h128v-128h-128zM256 512v128h128v-128h-128z" />
    <glyph glyph-name="uni04F4" unicode="&#x4f4;" 
d="M384 0v128h-384v384h128v-256h256v256h128v-512h-128zM128 640v128h128v-128h-128zM384 640v128h128v-128h-128z" />
    <glyph glyph-name="uni04F5" unicode="&#x4f5;" horiz-adv-x="512" 
d="M256 0v128h-256v256h128v-128h128v128h128v-384h-128zM0 512v128h128v-128h-128zM256 512v128h128v-128h-128z" />
    <glyph glyph-name="uni04F6" unicode="&#x4f6;" 
d="M128 -128v128h128v-128h-128zM0 0v512h512v-128h-384v-384h-128z" />
    <glyph glyph-name="uni04F7" unicode="&#x4f7;" horiz-adv-x="512" 
d="M128 -128v128h128v-128h-128zM0 0v384h384v-128h-256v-256h-128z" />
    <glyph glyph-name="uni04F8" unicode="&#x4f8;" horiz-adv-x="896" 
d="M384 128v128h-256v-128h256zM0 0v512h128v-128h384v-384h-512zM640 0v512h128v-512h-128zM256 640v128h128v-128h-128zM512 640v128h128v-128h-128z" />
    <glyph glyph-name="uni04F9" unicode="&#x4f9;" horiz-adv-x="768" 
d="M0 0v384h128v-128h256v-256h-384zM512 0v384h128v-384h-128zM128 512v128h128v-128h-128zM384 512v128h128v-128h-128z" />
    <glyph glyph-name="uni04FA" unicode="&#x4fa;" horiz-adv-x="768" 
d="M256 -128v128h128v-128h-128zM128 0v128h-128v128h128v256h512v-128h-384v-128h128v-128h-128v-128h-128z" />
    <glyph glyph-name="uni04FB" unicode="&#x4fb;" horiz-adv-x="512" 
d="M256 -128v128h128v-128h-128zM128 0v128h-128v128h128v256h256v-128h-128v-128h128v-128h-128v-128h-128z" />
    <glyph glyph-name="uni04FC" unicode="&#x4fc;" horiz-adv-x="768" 
d="M512 -128v128h128v-128h-128zM0 0v128h128v-128h-128zM384 0v128h128v-128h-128zM128 128v256h128v-128h128v-128h-256zM0 384v128h128v-128h-128zM384 384v128h128v-128h-128z" />
    <glyph glyph-name="uni04FD" unicode="&#x4fd;" 
d="M384 -128v128h128v-128h-128zM0 0v128h128v-128h-128zM256 0v128h128v-128h-128zM128 128v128h128v-128h-128zM0 256v128h128v-128h-128zM256 256v128h128v-128h-128z" />
    <glyph glyph-name="uni04FE" unicode="&#x4fe;" 
d="M0 0v128h128v-128h-128zM384 0v128h128v-128h-128zM128 128v256h256v-256h-256zM0 384v128h128v-128h-128zM384 384v128h128v-128h-128z" />
    <glyph glyph-name="uni04FF" unicode="&#x4ff;" horiz-adv-x="512" 
d="M0 0v128h128v-128h-128zM256 0v128h128v-128h-128zM128 128v128h128v-128h-128zM0 256v128h128v-128h-128zM256 256v128h128v-128h-128z" />
    <glyph glyph-name="uni1E9E" unicode="&#x1e9e;" 
d="M256 0v128h128v-128h-128zM384 128v128h128v-128h-128zM0 0v384h128v-128h128v-128h-128v-128h-128zM256 256v128h128v-128h-128zM128 384v128h128v-128h-128z" />
    <glyph glyph-name="emdash" unicode="&#x2014;" 
d="M0 128v128h512v-128h-512z" />
    <glyph glyph-name="quoteleft" unicode="&#x2018;" horiz-adv-x="256" 
d="M0 256v256h128v-256h-128z" />
    <glyph glyph-name="quoteright" unicode="&#x2019;" horiz-adv-x="256" 
d="M0 256v256h128v-256h-128z" />
    <glyph glyph-name="quotesinglbase" unicode="&#x201a;" horiz-adv-x="256" 
d="M0 -128v256h128v-256h-128z" />
    <glyph glyph-name="quotereversed" unicode="&#x201b;" horiz-adv-x="512" 
d="M256 256v256h128v-256h-128z" />
    <glyph glyph-name="quotedblleft" unicode="&#x201c;" horiz-adv-x="512" 
d="M0 256v256h128v-256h-128zM256 256v256h128v-256h-128z" />
    <glyph glyph-name="quotedblright" unicode="&#x201d;" horiz-adv-x="512" 
d="M0 256v256h128v-256h-128zM256 256v256h128v-256h-128z" />
    <glyph glyph-name="quotedblbase" unicode="&#x201e;" horiz-adv-x="512" 
d="M0 -128v256h128v-256h-128zM256 -128v256h128v-256h-128z" />
    <glyph glyph-name="dagger" unicode="&#x2020;" horiz-adv-x="512" 
d="M128 0v256h128v-256h-128zM0 256v128h128v-128h-128zM256 256v128h128v-128h-128zM128 384v128h128v-128h-128z" />
    <glyph glyph-name="bullet" unicode="&#x2022;" horiz-adv-x="384" 
d="M0 128v256h256v-256h-256z" />
    <glyph glyph-name="ellipsis" unicode="&#x2026;" horiz-adv-x="768" 
d="M0 128v128h128v-128h-128zM256 128v128h128v-128h-128zM512 128v128h128v-128h-128z" />
    <glyph glyph-name="guilsinglleft" unicode="&#x2039;" horiz-adv-x="384" 
d="M128 0v128h128v-128h-128zM0 128v128h128v-128h-128zM128 256v128h128v-128h-128z" />
    <glyph glyph-name="guilsinglright" unicode="&#x203a;" horiz-adv-x="384" 
d="M0 0v128h128v-128h-128zM128 128v128h128v-128h-128zM0 256v128h128v-128h-128z" />
    <glyph glyph-name="trademark" unicode="&#x2122;" horiz-adv-x="1280" 
d="M512 128v256h128v-256h-128zM128 128v256h-128v128h384v-128h-128v-256h-128zM768 128v256h-128v128h512v-384h-128v256h-128v-256h-128z" />
    <glyph glyph-name="uniFB00" unicode="&#xfb00;" horiz-adv-x="768" 
d="M0 0v384h128v-128h128v-128h-128v-128h-128zM384 0v384h128v-128h128v-128h-128v-128h-128zM128 384v128h128v-128h-128zM512 384v128h128v-128h-128z" />
    <glyph glyph-name="uniFB01" unicode="&#xfb01;" 
d="M384 0v256h128v-256h-128zM0 0v384h128v-128h128v-128h-128v-128h-128zM128 384v128h128v-128h-128zM384 384v128h128v-128h-128z" />
    <glyph glyph-name="uniFB02" unicode="&#xfb02;" 
d="M0 0v384h128v-128h128v-128h-128v-128h-128zM128 384v128h128v-128h-128zM384 0v512h128v-512h-128z" />
    <glyph glyph-name="uniFB03" unicode="&#xfb03;" horiz-adv-x="1024" 
d="M768 0v256h128v-256h-128zM0 0v384h128v-128h128v-128h-128v-128h-128zM384 0v384h128v-128h128v-128h-128v-128h-128zM128 384v128h128v-128h-128zM512 384v128h128v-128h-128zM768 384v128h128v-128h-128z" />
    <glyph glyph-name="uniFB04" unicode="&#xfb04;" horiz-adv-x="1024" 
d="M0 0v384h128v-128h128v-128h-128v-128h-128zM384 0v384h128v-128h128v-128h-128v-128h-128zM128 384v128h128v-128h-128zM512 384v128h128v-128h-128zM768 0v512h128v-512h-128z" />
    <glyph glyph-name="uniFB06" unicode="&#xfb06;" horiz-adv-x="768" 
d="M512 0v128h128v-128h-128zM0 0v128h128v128h128v-256h-256zM0 256v256h256v-128h-128v-128h-128zM384 128v384h128v-128h128v-128h-128v-128h-128z" />
  </font>
</defs>
</svg>
